<svg width="20" height="21" viewBox="0 0 20 21" fill="none" xmlns="http://www.w3.org/2000/svg">
<g clip-path="url(#clip0)">
<path d="M18.6592 5.53901C17.7649 4.00999 16.5519 2.79936 15.0199 1.90689C13.4875 1.01448 11.8148 0.568359 10.0003 0.568359C8.18602 0.568359 6.51276 1.01448 4.9807 1.90689C3.44854 2.79922 2.23554 4.00985 1.34129 5.53901C0.44699 7.06826 0 8.73825 0 10.5489C0 12.3595 0.447127 14.0293 1.34115 15.5586C2.23536 17.0876 3.44836 18.2983 4.98052 19.1908C6.51276 20.0832 8.18588 20.5293 10.0001 20.5293C11.8143 20.5293 13.4877 20.0832 15.0198 19.1908C16.5519 18.2986 17.7648 17.0876 18.659 15.5586C19.553 14.0294 20 12.3594 20 10.5489C20 8.73807 19.553 7.06803 18.6592 5.53901ZM15.2477 11.1335L9.33613 17.0337C9.17117 17.1981 8.97602 17.2808 8.75022 17.2808C8.52438 17.2808 8.32904 17.1982 8.16418 17.0337L6.83607 15.7078C6.67111 15.5433 6.5886 15.3483 6.5886 15.123C6.5886 14.8981 6.67111 14.7028 6.83607 14.5382L10.8336 10.5488L6.83588 6.55919C6.67092 6.39478 6.58842 6.1997 6.58842 5.97452C6.58842 5.74926 6.67092 5.55435 6.83588 5.38976L8.16399 4.06383C8.32904 3.89929 8.52419 3.81695 8.75004 3.81695C8.97579 3.81695 9.17112 3.89929 9.33608 4.06383L15.2477 9.96386C15.4125 10.1284 15.4949 10.3234 15.4949 10.5486C15.4949 10.774 15.4125 10.969 15.2477 11.1335Z" fill="white"/>
</g>
<defs>
<clipPath id="clip0">
<rect y="0.568359" width="20" height="19.9609" rx="9.98047" fill="white"/>
</clipPath>
</defs>
</svg>
