<svg width="103" height="91" viewBox="0 0 103 91" fill="none" xmlns="http://www.w3.org/2000/svg">
<path d="M97.8232 43.2958C94.8399 40.0516 90.7773 37.6801 86.268 36.527C85.749 24.2163 74.2514 14.3425 60.1929 14.3425C54.2415 14.3425 48.4196 16.1597 43.8003 19.4593C39.833 22.2932 36.8805 26.116 35.3357 30.3722C33.2572 29.6379 31.0254 29.2551 28.7751 29.2551C19.0728 29.2551 11.1715 36.1982 11.1032 44.7563C4.41137 47.438 0 53.4101 0 59.9655C0 69.1695 8.4754 76.6574 18.893 76.6574H79.835C92.6084 76.6574 103 67.4763 103 56.1913C103 51.5055 101.162 46.9259 97.8232 43.2958ZM79.835 73.4675H18.893C10.4663 73.4675 3.61055 67.4106 3.61055 59.9655C3.61055 54.3473 7.61537 49.2592 13.5757 47.3042C14.3247 47.0586 14.8018 46.4074 14.7488 45.7033C14.7245 45.3798 14.7132 45.1144 14.7132 44.8684C14.7132 38.018 21.0213 32.4448 28.7751 32.4448C31.1713 32.4448 33.5401 32.99 35.6255 34.0215C36.1221 34.2673 36.7212 34.2915 37.2411 34.087C37.7613 33.8824 38.1418 33.4732 38.2677 32.9826C39.3766 28.6637 42.1476 24.7422 46.0703 21.9402C50.0494 19.0978 55.0649 17.5326 60.1929 17.5326C72.59 17.5326 82.6758 26.4433 82.6758 37.3962C82.6758 37.4906 82.6736 37.5846 82.6719 37.6786L82.6707 37.7415C82.6562 38.4992 83.2477 39.1614 84.0851 39.3254C88.359 40.162 92.2427 42.2865 95.0209 45.3073C97.8381 48.3705 99.3895 52.236 99.3895 56.1913C99.3895 65.7174 90.6173 73.4675 79.835 73.4675Z" fill="white"/>
</svg>
