<svg width="103" height="91" viewBox="0 0 103 91" fill="none" xmlns="http://www.w3.org/2000/svg">
<path d="M27.3594 34.125V66.8281C27.3594 67.2052 27.5289 67.5669 27.8307 67.8335C28.1326 68.1002 28.5419 68.25 28.9688 68.25H74.0312C74.4581 68.25 74.8674 68.1002 75.1693 67.8335C75.4711 67.5669 75.6406 67.2052 75.6406 66.8281V24.1719C75.6406 23.7948 75.4711 23.4331 75.1693 23.1665C74.8674 22.8998 74.4581 22.75 74.0312 22.75H28.9688C28.5419 22.75 28.1326 22.8998 27.8307 23.1665C27.5289 23.4331 27.3594 23.7948 27.3594 24.1719V31.2813H30.5781V25.5938H43.4531V41.2344H30.5781V34.125H27.3594ZM59.5469 25.5938H72.4219V41.2344H59.5469V25.5938ZM46.6719 25.5938H56.3281V41.2344H46.6719V25.5938ZM46.6719 44.0781H56.3281V51.7307L55.4385 51.3377C55.2151 51.239 54.9686 51.1876 54.7188 51.1876C54.4689 51.1876 54.2224 51.239 53.999 51.3377L51.5 52.4416L49.001 51.3377C48.7776 51.239 48.5311 51.1876 48.2812 51.1876C48.0314 51.1876 47.7849 51.239 47.5615 51.3377L46.6719 51.7307V44.0781ZM43.4531 44.0781V54.0313C43.4531 54.2736 43.5233 54.512 43.6569 54.7237C43.7905 54.9353 43.9831 55.1133 44.2165 55.2408C44.4498 55.3682 44.7162 55.4408 44.9902 55.4516C45.2643 55.4625 45.5369 55.4113 45.7823 55.3029L48.2812 54.199L50.7802 55.3029C51.0037 55.4017 51.2501 55.4531 51.5 55.4531C51.7499 55.4531 51.9963 55.4017 52.2198 55.3029L54.7188 54.199L57.2177 55.3029C57.4631 55.4113 57.7357 55.4625 58.0098 55.4516C58.2838 55.4408 58.5502 55.3682 58.7835 55.2408C59.0169 55.1133 59.2095 54.9353 59.3431 54.7237C59.4767 54.512 59.5469 54.2736 59.5469 54.0313V44.0781H72.4219V65.4063H30.5781V44.0781H43.4531ZM69.2031 62.5625H65.9844V59.7188H69.2031V62.5625ZM62.7656 62.5625H59.5469V59.7188H62.7656V62.5625ZM56.3281 62.5625H53.1094V59.7188H56.3281V62.5625ZM85.6401 15.3374C90.1374 19.2892 93.7029 23.9899 96.1302 29.1673C98.5576 34.3447 99.7985 39.896 99.7812 45.5C99.78 47.4689 99.6264 49.4353 99.3216 51.3857C99.2684 51.7259 99.0777 52.0376 98.7846 52.2632C98.4916 52.4888 98.116 52.6131 97.7273 52.6131C97.6533 52.6131 97.5793 52.6085 97.506 52.5994L91.1288 51.8146C90.7065 51.7625 90.3247 51.5645 90.0675 51.264C89.8102 50.9634 89.6985 50.585 89.7569 50.2117C90.0011 48.6504 90.1241 47.0762 90.125 45.5C90.125 26.6834 72.7979 11.375 51.5 11.375C45.1064 11.372 38.8121 12.7725 33.1828 15.4507C27.5535 18.1289 22.7656 22.0009 19.2493 26.7186L21.9072 27.9077C22.1713 28.0258 22.3934 28.206 22.5491 28.4285C22.7048 28.6509 22.788 28.907 22.7896 29.1685C22.7912 29.43 22.7111 29.6869 22.5582 29.9108C22.4052 30.1347 22.1853 30.3171 21.9227 30.4377L10.6321 35.6242C10.4086 35.7269 10.1609 35.7818 9.90895 35.7844C9.65702 35.7871 9.4079 35.7375 9.18164 35.6395C8.95538 35.5416 8.75831 35.3981 8.60629 35.2206C8.45427 35.0431 8.35155 34.8365 8.30639 34.6175L5.98024 23.3397C5.92655 23.0793 5.9562 22.8108 6.06587 22.5645C6.17553 22.3182 6.36085 22.1038 6.60096 21.9454C6.84106 21.7871 7.12643 21.6911 7.42492 21.6683C7.72342 21.6455 8.02319 21.6968 8.29049 21.8164L10.5869 22.8437C12.0795 20.7452 13.7751 18.765 15.6546 16.9251L18.0439 18.8306C15.9724 20.8581 14.1412 23.0676 12.5789 25.4246C12.3719 25.7372 12.0377 25.9684 11.6445 26.0708C11.2512 26.1732 10.8285 26.1391 10.4627 25.9755L9.72767 25.6467L11.082 32.2122L17.655 29.1929L16.2201 28.5511C16.0232 28.4629 15.8489 28.3399 15.708 28.1897C15.5672 28.0395 15.4629 27.8653 15.4015 27.6779C15.3402 27.4906 15.3231 27.2941 15.3514 27.1006C15.3796 26.9072 15.4527 26.721 15.5659 26.5535C19.2761 21.0574 24.5385 16.5068 30.8377 13.3476C37.1368 10.1883 44.2567 8.52872 51.5 8.53125C74.5726 8.53125 93.3438 25.1155 93.3438 45.5C93.3438 46.7239 93.2735 47.96 93.1349 49.1903L96.3251 49.5831C96.4826 48.2265 96.5619 46.8637 96.5625 45.5C96.5627 37.7298 93.9893 30.1294 89.1595 23.6357C84.3296 17.142 77.4545 12.039 69.3816 8.95581C61.3088 5.87257 52.3912 4.94389 43.7282 6.28424C35.0651 7.6246 27.0354 11.1754 20.629 16.4989L18.4231 14.4279C27.5639 6.83207 39.6929 2.67899 52.2402 2.84876C64.7875 3.01853 76.7669 7.4978 85.6401 15.3374ZM13.2431 40.7883C12.999 42.3496 12.876 43.9238 12.875 45.5C12.875 64.3166 30.2021 79.625 51.5 79.625C57.9139 79.6278 64.2276 78.2183 69.8701 75.524C75.5127 72.8296 80.3062 68.9354 83.8175 64.1932L81.5148 63.4334C81.2374 63.3419 80.9939 63.1845 80.8111 62.9786C80.6284 62.7727 80.5135 62.5262 80.4792 62.2663C80.4448 62.0064 80.4923 61.7432 80.6164 61.5056C80.7405 61.268 80.9364 61.0653 81.1825 60.9197L91.7344 54.6798C91.9432 54.5564 92.1818 54.478 92.431 54.4506C92.6803 54.4233 92.9334 54.448 93.17 54.5226C93.4066 54.5971 93.6201 54.7196 93.7935 54.8802C93.9669 55.0408 94.0953 55.235 94.1686 55.4473L97.9472 66.4135C98.0346 66.6672 98.04 66.9374 97.9627 67.1937C97.8855 67.4499 97.7286 67.682 97.5099 67.8636C97.2912 68.0452 97.0194 68.1692 96.7251 68.2216C96.4309 68.2739 96.1259 68.2525 95.8447 68.1597L93.047 67.2369C91.1859 70.0069 88.977 72.5826 86.4623 74.915L84.1315 72.9537C86.7783 70.499 89.0609 67.7568 90.9243 64.7931C91.1113 64.4955 91.4129 64.267 91.7744 64.1492C92.1359 64.0314 92.5332 64.0321 92.8941 64.1511L93.9201 64.4888L91.7217 58.1081L85.5825 61.7391L86.7833 62.1351C87.0034 62.2076 87.2027 62.3219 87.3675 62.4698C87.5322 62.6177 87.6583 62.7957 87.7369 62.9912C87.8155 63.1868 87.8447 63.3951 87.8224 63.6017C87.8002 63.8083 87.7271 64.0081 87.6081 64.187C83.9193 69.7537 78.6453 74.3702 72.3106 77.5775C65.9758 80.7848 58.8012 82.4711 51.5 82.4688C28.4274 82.4688 9.65625 65.8845 9.65625 45.5C9.65625 44.2761 9.72646 43.04 9.86507 41.8097L6.67488 41.4169C6.51737 42.7735 6.43814 44.1363 6.4375 45.5C6.4371 53.2158 8.97456 60.7655 13.7412 67.2307C18.5079 73.6958 25.2983 78.7979 33.2866 81.9163C41.2748 85.0347 50.1166 86.035 58.7365 84.7955C67.3564 83.556 75.3828 80.1302 81.8395 74.9348L84.0078 77.0367C77.0898 82.6032 68.4901 86.2737 59.2545 87.6018C50.0189 88.9298 40.5455 87.8581 31.9866 84.5171C23.4277 81.1761 16.1521 75.7096 11.0448 68.7827C5.93751 61.8558 3.21859 53.767 3.21875 45.5C3.21998 43.5311 3.37356 41.5647 3.67843 39.6143C3.70736 39.4292 3.77732 39.251 3.88429 39.0897C3.99126 38.9285 4.13315 38.7875 4.30185 38.6748C4.47054 38.5621 4.66273 38.4798 4.86743 38.4328C5.07213 38.3857 5.28532 38.3748 5.49481 38.4006L11.872 39.1855C12.2942 39.2377 12.6757 39.4358 12.9328 39.7363C13.1899 40.0368 13.3015 40.4151 13.2431 40.7883Z" fill="white"/>
</svg>
