<svg width="120" height="100" viewBox="0 0 120 100" fill="none" xmlns="http://www.w3.org/2000/svg">
<g clip-path="url(#clip0)">
<path d="M34 56.6667H38V60H34V56.6667Z" fill="#444444"/>
<path d="M41.9997 56.6666H45.9997V60H41.9997V56.6666Z" fill="#444444"/>
<path d="M49.9996 56.6666H53.9996V60H49.9996V56.6666Z" fill="#444444"/>
<path d="M34 63.3333H38V66.6666H34V63.3333Z" fill="#444444"/>
<path d="M41.9997 63.3333H45.9997V66.6666H41.9997V63.3333Z" fill="#444444"/>
<path d="M49.9996 63.3333H53.9996V66.6666H49.9996V63.3333Z" fill="#444444"/>
<path d="M57.9996 63.3333H61.9996V66.6666H57.9996V63.3333Z" fill="#444444"/>
<path d="M65.9995 63.3333H69.9995V66.6666H65.9995V63.3333Z" fill="#444444"/>
<path d="M34 70H38V73.3333H34V70Z" fill="#444444"/>
<path d="M41.9997 69.9999H45.9997V73.3332H41.9997V69.9999Z" fill="#444444"/>
<path d="M49.9996 69.9999H53.9996V73.3332H49.9996V69.9999Z" fill="#444444"/>
<path d="M57.9996 69.9999H61.9996V73.3332H57.9996V69.9999Z" fill="#444444"/>
<path d="M65.9995 69.9999H69.9995V73.3332H65.9995V69.9999Z" fill="#444444"/>
<path d="M34 76.6667H38V80H34V76.6667Z" fill="#444444"/>
<path d="M41.9997 76.6665H45.9997V79.9998H41.9997V76.6665Z" fill="#444444"/>
<path d="M49.9996 76.6665H53.9996V79.9998H49.9996V76.6665Z" fill="#444444"/>
<path d="M57.9996 76.6665H61.9996V79.9998H57.9996V76.6665Z" fill="#444444"/>
<path d="M65.9995 76.6665H69.9995V79.9998H65.9995V76.6665Z" fill="#444444"/>
<path d="M33.9998 83.3331H37.9998V86.6665H33.9998V83.3331Z" fill="#444444"/>
<path d="M41.9997 83.3331H45.9997V86.6665H41.9997V83.3331Z" fill="#444444"/>
<path d="M49.9996 83.3331H53.9996V86.6665H49.9996V83.3331Z" fill="#444444"/>
<path d="M57.9996 83.3331H61.9996V86.6665H57.9996V83.3331Z" fill="#444444"/>
<path d="M65.9995 83.3331H69.9995V86.6665H65.9995V83.3331Z" fill="#444444"/>
<path d="M33.9998 89.9997H37.9998V93.333H33.9998V89.9997Z" fill="#444444"/>
<path d="M41.9997 89.9997H45.9997V93.333H41.9997V89.9997Z" fill="#444444"/>
<path d="M49.9996 89.9997H53.9996V93.333H49.9996V89.9997Z" fill="#444444"/>
<path d="M57.9996 89.9997H61.9996V93.333H57.9996V89.9997Z" fill="#444444"/>
<path d="M65.9995 89.9997H69.9995V93.333H65.9995V89.9997Z" fill="#444444"/>
<path d="M117.999 5.0007H103.999V1.66739C103.999 0.746984 103.104 0.000732422 101.999 0.000732422H81.9994C80.8949 0.000732422 79.9994 0.746984 79.9994 1.66739V5.0007H1.99999C0.895502 5.0007 9.53674e-07 5.74695 9.53674e-07 6.66735V13.334C9.53674e-07 14.2552 0.895502 15.0006 1.99999 15.0006H7.99994V46.6671C7.99994 47.5883 8.89544 48.3337 9.99993 48.3337C11.1044 48.3337 11.9999 49.08 11.9999 50.0004C11.9999 50.9216 11.1044 51.667 9.99993 51.667C8.89544 51.667 7.99994 50.9216 7.99994 50.0004H3.99997C4.00583 51.2203 4.54977 52.3962 5.53023 53.3028L0.400389 59.001L0.425779 59.0172C0.158203 59.2972 0.00878994 59.6431 9.53674e-07 60.0003V66.6669C9.53674e-07 67.1096 0.210937 67.5328 0.585934 67.8453L4.58591 71.1786C4.9609 71.4911 5.46969 71.6669 5.99996 71.6669H13.9999C14.5302 71.6669 15.039 71.4911 15.414 71.1786L19.4139 67.8453C19.7889 67.5328 19.9999 67.1096 19.9999 66.6669V60.0003C19.9911 59.6431 19.8417 59.2972 19.5741 59.0172L19.5995 59.001L14.4696 53.3028C15.8055 52.0658 16.3095 50.3536 15.8124 48.7422C15.3163 47.1309 13.8847 45.8337 11.9999 45.2861V15.0006H79.9994V16.6673C79.9994 17.5885 80.8949 18.3339 81.9994 18.3339H85.9994V96.6667H77.9994V30.0005H73.9995V36.6671H61.9996V33.3338H57.9996V36.6671H45.9997V35.0005H41.9997V36.6671H29.9998V31.6672H55.9996V28.3339H29.9998V21.6672H25.9998V96.6667H22.828L13.414 88.8225C12.6327 88.1715 11.3671 88.1715 10.5859 88.8225L1.17187 96.6667H9.53674e-07V100H119.999V96.6667H118.44C119.847 95.3866 120.347 93.5849 119.757 91.919C119.168 90.254 117.575 88.9666 115.559 88.5271C116.575 86.4381 115.79 84.0415 113.64 82.6735C111.49 81.3055 108.508 81.3055 106.359 82.6735C104.208 84.0415 103.423 86.4381 104.44 88.5271C102.423 88.9666 100.83 90.254 100.241 91.919C99.6516 93.5849 100.152 95.3866 101.559 96.6667H97.9993V18.3339H101.999C103.104 18.3339 103.999 17.5885 103.999 16.6673V15.0006H117.999C119.104 15.0006 119.999 14.2552 119.999 13.334V6.66735C119.999 5.74695 119.104 5.0007 117.999 5.0007ZM10.9999 55.0003L13.9999 58.3337H5.99996L8.99994 55.0003H10.9999ZM15.9999 65.9776L13.1718 68.3336H6.82808L3.99997 65.9776V61.667H15.9999V65.9776ZM109.4 8.33401L103.999 11.3345V8.33401H109.4ZM83.9994 3.33404H91.9993V10.0007H83.9994V3.33404ZM29.9998 8.66766L35.4001 11.6673H24.5994L29.9998 8.66766ZM17.9999 11.3345L12.5995 8.33401H23.4002L17.9999 11.3345ZM36.5993 8.33401H47.4L41.9997 11.3345L36.5993 8.33401ZM53.9996 8.66766L59.4 11.6673H48.5993L53.9996 8.66766ZM60.5992 8.33401H71.3999L65.9995 11.3345L60.5992 8.33401ZM3.99997 8.33401H5.40035L11.4003 11.6673H3.99997V8.33401ZM72.5991 11.6673L78.599 8.33401H79.9994V11.6673H72.5991ZM93.9993 91.1671L90.3997 86.6668L93.9993 82.1673V91.1671ZM93.9993 51.1674L90.3997 46.6671L93.9993 42.1676V51.1674ZM89.9993 52.1675L93.5989 56.667L89.9993 61.1673V52.1675ZM89.9993 41.1674V32.1677L93.5989 36.6671L89.9993 41.1674ZM89.9993 72.1674L93.5989 76.6669L89.9993 81.1671V72.1674ZM93.9993 71.1575L90.3997 66.6669L93.9993 62.1674V71.1575ZM90.3997 26.6672L93.9993 22.1677V31.1675L90.3997 26.6672ZM89.9993 21.1676V18.3339H92.263L89.9993 21.1676ZM73.9995 40.0005V56.667H61.9996V40.0005H73.9995ZM57.9996 40.0005V54.3338L53.4 50.5456C53.027 50.2388 52.524 50.0655 51.9996 50.0639H45.9997V40.0005H57.9996ZM41.9997 40.0005V42.7787H29.9998V40.0005H41.9997ZM11.9999 92.3568L17.1718 96.6667H6.82808L11.9999 92.3568ZM29.9998 96.6667V46.1121H41.9997V51.737C41.9997 52.6582 42.8952 53.4037 43.9997 53.4037H51.1774L58.5992 59.5194C58.9722 59.8262 59.4752 59.9995 59.9996 60.0003H73.9995V96.6667H29.9998ZM89.9993 92.1672L93.5989 96.6667H89.9993V92.1672ZM113.999 95.0001C112.895 95.0001 111.999 94.2546 111.999 93.3334C111.999 92.413 112.895 91.6667 113.999 91.6667C115.104 91.6667 115.999 92.413 115.999 93.3334C115.999 94.2546 115.104 95.0001 113.999 95.0001ZM109.999 85.0001C111.104 85.0001 111.999 85.7464 111.999 86.6668C111.999 87.588 111.104 88.3334 109.999 88.3334C108.895 88.3334 107.999 87.588 107.999 86.6668C107.999 85.7464 108.895 85.0001 109.999 85.0001ZM105.999 91.6667C107.104 91.6667 107.999 92.413 107.999 93.3334C107.999 94.2546 107.104 95.0001 105.999 95.0001C104.895 95.0001 103.999 94.2546 103.999 93.3334C103.999 92.413 104.895 91.6667 105.999 91.6667ZM99.9993 15.0006H83.9994V13.334H93.9993C95.1038 13.334 95.9993 12.5885 95.9993 11.6673V3.33404H99.9993V15.0006ZM110.599 11.6673L115.999 8.66766V11.6673H110.599Z" fill="#444444"/>
</g>
<defs>
<clipPath id="clip0">
<rect width="120" height="100" fill="white"/>
</clipPath>
</defs>
</svg>
