<svg width="103" height="91" viewBox="0 0 103 91" fill="none" xmlns="http://www.w3.org/2000/svg">
<path d="M94.9531 17.0625H78.8594V15.052L65.0413 2.84375H24.1406V17.0625H8.04688C6.76638 17.0625 5.53832 17.5119 4.63288 18.3119C3.72743 19.1118 3.21875 20.1968 3.21875 21.3281V72.5156C3.21875 73.6469 3.72743 74.7319 4.63288 75.5319C5.53832 76.3318 6.76638 76.7812 8.04688 76.7812H41.8438V79.0321C41.8418 80.136 41.551 81.2246 40.994 82.2128L37.6304 88.1562H65.3696L62.006 82.2128C61.449 81.2246 61.1582 80.136 61.1562 79.0321V76.7812H94.9531C96.2336 76.7812 97.4617 76.3318 98.3671 75.5319C99.2726 74.7319 99.7812 73.6469 99.7812 72.5156V21.3281C99.7812 20.1968 99.2726 19.1118 98.3671 18.3119C97.4617 17.5119 96.2336 17.0625 94.9531 17.0625ZM65.9844 7.69803L73.365 14.2188H65.9844V7.69803ZM27.3594 5.6875H62.7656V17.0625H75.6406V59.7188H27.3594V5.6875ZM59.1268 83.484L60.1617 85.3125H42.8383L43.8732 83.484C44.6539 82.1012 45.061 80.5773 45.0625 79.0321V76.7812H57.9375V79.0321C57.939 80.5773 58.3461 82.1012 59.1268 83.484ZM96.5625 72.5156C96.5625 72.8927 96.3929 73.2544 96.0911 73.521C95.7893 73.7877 95.38 73.9375 94.9531 73.9375H8.04688C7.62004 73.9375 7.21069 73.7877 6.90888 73.521C6.60706 73.2544 6.4375 72.8927 6.4375 72.5156V68.25H96.5625V72.5156ZM6.4375 65.4062V21.3281C6.4375 20.951 6.60706 20.5894 6.90888 20.3227C7.21069 20.0561 7.62004 19.9062 8.04688 19.9062H24.1406V62.5625H78.8594V19.9062H94.9531C95.38 19.9062 95.7893 20.0561 96.0911 20.3227C96.3929 20.5894 96.5625 20.951 96.5625 21.3281V65.4062H6.4375Z" fill="#444444"/>
<path d="M41.8438 14.2188C39.6156 14.2187 37.4375 14.8025 35.5849 15.8962C33.7323 16.9898 32.2883 18.5443 31.4357 20.363C30.583 22.1817 30.3599 24.1829 30.7946 26.1136C31.2293 28.0444 32.3022 29.8178 33.8778 31.2098C35.4533 32.6018 37.4606 33.5497 39.6459 33.9338C41.8313 34.3178 44.0964 34.1207 46.1549 33.3674C48.2134 32.614 49.9729 31.3383 51.2108 29.7015C52.4487 28.0648 53.1094 26.1404 53.1094 24.1719C53.106 21.5331 51.918 19.0032 49.806 17.1373C47.694 15.2714 44.8305 14.2218 41.8438 14.2188ZM49.7297 22.75H46.3758C46.0441 21.9212 45.4307 21.2031 44.6194 20.6941C43.8082 20.1851 42.8388 19.9099 41.8438 19.9063C41.1268 19.9087 40.4198 20.0545 39.7757 20.3328L37.4131 18.2455C38.5101 17.6019 39.7693 17.2064 41.0799 17.0939C42.3905 16.9814 43.7124 17.1553 44.929 17.6002C46.1457 18.0452 47.2199 18.7476 48.057 19.6456C48.8942 20.5436 49.4686 21.6097 49.7297 22.75ZM41.8438 22.75C42.1621 22.75 42.4732 22.8334 42.7379 22.9896C43.0025 23.1459 43.2088 23.3679 43.3306 23.6277C43.4524 23.8876 43.4843 24.1735 43.4222 24.4493C43.3601 24.7251 43.2068 24.9784 42.9818 25.1773C42.7567 25.3761 42.4699 25.5116 42.1577 25.5664C41.8455 25.6213 41.522 25.5931 41.2279 25.4855C40.9338 25.3779 40.6824 25.1957 40.5056 24.9618C40.3288 24.728 40.2344 24.4531 40.2344 24.1719C40.2344 23.7948 40.4039 23.4331 40.7058 23.1665C41.0076 22.8998 41.4169 22.75 41.8438 22.75ZM41.8438 31.2813C40.3898 31.2833 38.9625 30.9368 37.714 30.2785C36.4655 29.6203 35.4425 28.6751 34.7542 27.5436C34.0659 26.4121 33.738 25.1369 33.8055 23.8537C33.873 22.5706 34.3333 21.3276 35.1375 20.2575L37.4984 22.3448C37.1835 22.9138 37.0184 23.5384 37.0156 24.1719C37.0135 25.1769 37.414 26.1502 38.1462 26.9193C38.8784 27.6884 39.8952 28.2038 41.0163 28.3741C42.1374 28.5444 43.2905 28.3586 44.2714 27.8498C45.2524 27.3409 45.9978 26.5417 46.3758 25.5938H49.7297C49.3562 27.1985 48.3679 28.6403 46.9314 29.6764C45.4949 30.7124 43.6981 31.2792 41.8438 31.2813Z" fill="#444444"/>
<path d="M72.4219 19.9062H56.3281V22.75H72.4219V19.9062Z" fill="#444444"/>
<path d="M72.4219 25.5938H56.3281V28.4375H72.4219V25.5938Z" fill="#444444"/>
<path d="M59.5469 8.53125H43.4531V11.375H59.5469V8.53125Z" fill="#444444"/>
<path d="M46.6719 36.9688H30.5781V39.8125H46.6719V36.9688Z" fill="#444444"/>
<path d="M46.6719 42.6562H30.5781V45.5H46.6719V42.6562Z" fill="#444444"/>
<path d="M46.6719 48.3438H30.5781V51.1875H46.6719V48.3438Z" fill="#444444"/>
<path d="M53.1094 51.7762L57.9375 47.5105L61.1562 50.3543L71.9503 40.8178L69.6747 38.8072L61.1562 46.3332L57.9375 43.4895L53.1094 47.7551V36.9688H49.8906V56.875H72.4219V54.0312H53.1094V51.7762Z" fill="#444444"/>
<path d="M46.6719 54.0312H30.5781V56.875H46.6719V54.0312Z" fill="#444444"/>
</svg>
