<svg width="30" height="31" viewBox="0 0 30 31" fill="none" xmlns="http://www.w3.org/2000/svg">
<path d="M28.8281 13.8372H1.17188C0.524648 13.8372 0 14.3621 0 15.0097C0 15.6572 0.524648 16.1821 1.17188 16.1821H28.8281C29.4754 16.1821 30 15.6572 30 15.0097C30 14.3621 29.4754 13.8372 28.8281 13.8372Z" fill="black"/>
<path d="M28.8281 4.45767H1.17188C0.524648 4.45767 0 4.98257 0 5.63011C0 6.27765 0.524648 6.80255 1.17188 6.80255H28.8281C29.4754 6.80255 30 6.27765 30 5.63011C30 4.98257 29.4754 4.45767 28.8281 4.45767Z" fill="black"/>
<path d="M28.8281 23.2167H1.17188C0.524648 23.2167 0 23.7416 0 24.3892C0 25.0367 0.524648 25.5616 1.17188 25.5616H28.8281C29.4754 25.5616 30 25.0367 30 24.3892C30 23.7416 29.4754 23.2167 28.8281 23.2167Z" fill="black"/>
</svg>
