<svg width="103" height="91" viewBox="0 0 103 91" fill="none" xmlns="http://www.w3.org/2000/svg">
<path d="M45.8253 44.0333V37.6911C47.6736 38.0743 49.3747 38.8819 50.7564 40.0322L52.7014 37.7799C50.8002 36.2326 48.393 35.2572 45.8253 34.9938V33.156H43.0089V34.9639C39.0507 35.409 36.3002 37.8077 36.3002 40.8917C36.3002 44.2701 38.9501 45.6038 43.0089 46.5522V53.1639C40.9088 52.7714 38.9847 51.8441 37.4743 50.4965L35.4279 52.7196C37.4922 54.4834 40.1563 55.5977 43.0089 55.8904V57.8469H45.8253V55.9472C50.6888 55.6799 53.3089 53.1611 53.3089 49.9306C53.3057 46.3745 50.2535 44.9817 45.8253 44.0333ZM43.0089 43.3814C40.862 42.7586 39.7556 42.0477 39.7556 40.6251C39.7556 39.2615 41.0632 37.9868 43.0089 37.6314V43.3814ZM45.8253 53.309V47.1743C48.5427 47.8262 49.8842 48.5961 49.8842 50.227C49.8842 51.7086 48.509 53.1021 45.8253 53.309Z" fill="#444444"/>
<path d="M44.3656 26.1538C40.0348 26.1538 35.8012 27.2884 32.2002 29.4142C28.5992 31.54 25.7926 34.5614 24.1353 38.0964C22.4779 41.6315 22.0443 45.5213 22.8892 49.2741C23.7341 53.0268 25.8196 56.474 28.882 59.1796C31.9444 61.8851 35.8461 63.7277 40.0937 64.4741C44.3413 65.2206 48.7441 64.8375 52.7453 63.3732C56.7465 61.909 60.1663 59.4294 62.5724 56.2479C64.9785 53.0665 66.2628 49.3261 66.2628 45.4998C66.2564 40.3707 63.9473 35.4532 59.8422 31.8264C55.737 28.1995 50.1711 26.1595 44.3656 26.1538ZM44.3656 62.3576C40.5918 62.3576 36.9027 61.3689 33.7649 59.5165C30.6271 57.6642 28.1815 55.0314 26.7373 51.951C25.2931 48.8707 24.9153 45.4811 25.6515 42.2111C26.3877 38.941 28.205 35.9372 30.8735 33.5796C33.542 31.222 36.9418 29.6165 40.6431 28.966C44.3444 28.3155 48.1809 28.6494 51.6675 29.9253C55.154 31.2012 58.1341 33.3619 60.2307 36.1342C62.3273 38.9064 63.4464 42.1657 63.4464 45.4998C63.4406 49.9692 61.4285 54.2541 57.8514 57.4145C54.2743 60.5748 49.4244 62.3525 44.3656 62.3576Z" fill="#444444"/>
<path d="M92.1995 15.0335C92.1995 10.9349 79.0364 9.90407 72.7413 9.646L66.3666 3.63289C66.235 3.509 66.076 3.41021 65.8996 3.3426C65.7232 3.27499 65.5329 3.23998 65.3406 3.23975H23.393C23.2004 3.23971 23.0099 3.27458 22.8331 3.3422C22.6564 3.40982 22.4972 3.50876 22.3655 3.63289L11.1851 14.1825C10.9399 14.4136 10.8037 14.7188 10.8045 15.0356V86.5161C10.8045 86.8461 10.9529 87.1625 11.217 87.3959C11.481 87.6292 11.8392 87.7603 12.2127 87.7603H76.5257C76.8992 87.7603 77.2574 87.6292 77.5215 87.3959C77.7856 87.1625 77.934 86.8461 77.934 86.5161V20.0769C84.6941 19.4918 92.1995 18.1438 92.1995 15.0335ZM13.6169 85.2741V72.9642H75.1151V85.272L13.6169 85.2741ZM75.1151 70.4759H13.6169V15.5247L24.0038 5.72803H64.7274L75.1151 15.5247V17.7997C72.8419 17.9419 70.3345 18.0351 67.5784 18.0351C61.7844 18.1215 55.9975 17.6367 50.3251 16.5897C50.5802 15.8343 50.6468 15.0389 50.5202 14.2586C50.3937 13.4782 50.077 12.7313 49.5921 12.0696C49.5832 12.0547 49.5727 12.0412 49.5631 12.0269C49.5301 11.9836 49.4971 11.9402 49.4633 11.8975C49.448 11.8805 49.4351 11.862 49.419 11.8449C48.6768 10.9246 47.6314 10.2288 46.4253 9.85254C45.2191 9.47628 43.911 9.43782 42.6792 9.7424C41.4474 10.047 40.352 10.6798 39.5421 11.5545C38.7323 12.4293 38.2475 13.5034 38.1539 14.6305C38.0603 15.7575 38.3624 16.8827 39.019 17.8525C39.6756 18.8223 40.6548 19.5896 41.823 20.0498C42.9913 20.51 44.2917 20.6407 45.5471 20.424C46.8025 20.2074 47.9517 19.6539 48.8381 18.8391C55.5749 20.4537 65.9023 20.5241 67.5784 20.5241C68.4209 20.5241 71.4538 20.5056 75.1151 20.2838V70.4759ZM45.6346 17.8161C45.2318 17.9619 44.8009 18.0372 44.3656 18.0379C43.8634 18.0407 43.3667 17.9452 42.9111 17.7583C42.4556 17.5714 42.0526 17.2976 41.7311 16.9568C41.4095 16.6159 41.1774 16.2163 41.0514 15.7868C40.9254 15.3572 40.9086 14.9084 41.0023 14.4724C41.0959 14.0365 41.2977 13.6243 41.5931 13.2654C41.8885 12.9065 42.2702 12.6099 42.7108 12.3968C43.1513 12.1837 43.6398 12.0595 44.1412 12.0331C44.6426 12.0066 45.1443 12.0786 45.6105 12.2438C44.2787 12.8211 42.955 13.7119 42.955 15.0335C42.9574 16.1859 43.9922 17.0959 45.6346 17.8161ZM45.8495 15.0434C46.3697 14.6609 46.969 14.3711 47.6141 14.1903C47.8183 14.7411 47.8169 15.3352 47.6101 15.8852C46.9633 15.7159 46.3636 15.4292 45.8495 15.0434ZM77.9315 17.5829V15.0335C77.9323 14.7167 77.7962 14.4115 77.5509 14.1804L75.5473 12.2907C84.0335 12.8666 88.5228 14.2429 89.3171 15.0321C88.5518 15.8212 84.5775 16.958 77.9315 17.5829Z" fill="#444444"/>
<path d="M30.3198 79.2625H20.0262C19.6528 79.2625 19.2946 79.3935 19.0305 79.6269C18.7664 79.8602 18.618 80.1766 18.618 80.5066C18.618 80.8366 18.7664 81.153 19.0305 81.3863C19.2946 81.6197 19.6528 81.7507 20.0262 81.7507H30.3198C30.6933 81.7507 31.0515 81.6197 31.3156 81.3863C31.5796 81.153 31.728 80.8366 31.728 80.5066C31.728 80.1766 31.5796 79.8602 31.3156 79.6269C31.0515 79.3935 30.6933 79.2625 30.3198 79.2625Z" fill="#444444"/>
<path d="M38.5364 79.2625H35.6822C35.3087 79.2625 34.9506 79.3935 34.6865 79.6269C34.4224 79.8602 34.274 80.1766 34.274 80.5066C34.274 80.8366 34.4224 81.153 34.6865 81.3863C34.9506 81.6197 35.3087 81.7507 35.6822 81.7507H38.5364C38.9099 81.7507 39.2681 81.6197 39.5322 81.3863C39.7963 81.153 39.9447 80.8366 39.9447 80.5066C39.9447 80.1766 39.7963 79.8602 39.5322 79.6269C39.2681 79.3935 38.9099 79.2625 38.5364 79.2625Z" fill="#444444"/>
</svg>
