<svg width="120" height="100" viewBox="0 0 120 100" fill="none" xmlns="http://www.w3.org/2000/svg">
<path d="M90 51.5625C85.26 51.5625 80.7975 52.5547 76.875 54.2875V45.7141C80.7975 47.4453 85.26 48.4375 90 48.4375C105.508 48.4375 118.125 37.9234 118.125 25C118.125 12.0766 105.508 1.5625 90 1.5625C79.0069 1.5625 69.4931 6.85781 64.8694 14.5359L45.7463 2.79219C43.1588 1.20469 39.3412 1.20312 36.7537 2.79375L1.875 24.2109V32.8125H5.625V63.3563C3.25313 66.7922 1.875 70.7609 1.875 75C1.875 87.9234 14.4919 98.4375 30 98.4375C45.5081 98.4375 58.125 87.9234 58.125 75C58.125 73.3953 57.9281 71.8281 57.5588 70.3125H62.4431C62.0719 71.8281 61.875 73.3953 61.875 75C61.875 87.9234 74.4919 98.4375 90 98.4375C105.508 98.4375 118.125 87.9234 118.125 75C118.125 62.0766 105.508 51.5625 90 51.5625ZM90 4.6875C103.44 4.6875 114.375 13.8 114.375 25C114.375 36.2 103.44 45.3125 90 45.3125C76.56 45.3125 65.625 36.2 65.625 25C65.625 13.8 76.56 4.6875 90 4.6875ZM61.9706 26.5625C62.055 27.6219 62.1938 28.6703 62.4431 29.6875H43.125V26.5625H61.9706ZM51.6413 10.2937L46.875 15.0594V20.3125H50.625V18.1531L55.4119 20.1469L57.09 17.3516L51.7087 15.1094L54.6675 12.15L63.3806 17.5C62.6138 19.3844 62.1375 21.3734 61.9725 23.4359H43.125V5.14219C43.2544 5.20156 43.4025 5.23438 43.5225 5.30781L51.6413 10.2937ZM38.9775 5.30938C39.0975 5.23594 39.2438 5.20312 39.375 5.14375V23.4375H9.45375L23.1112 15.0516L24.915 18.5578L35.2575 20.2828L35.9944 17.2188L27.5869 15.8187L26.2125 13.1484L38.9775 5.30938ZM5.625 26.5625H39.375V29.6875H5.625V26.5625ZM9.375 32.8125H39.375V52.9297C38.1562 52.5687 36.9131 52.2531 35.625 52.0344V35.9375H13.125V56.2938C11.775 57.1422 10.5206 58.0859 9.375 59.1187V32.8125ZM31.875 51.6422C31.2525 51.6078 30.6338 51.5625 30 51.5625C25.26 51.5625 20.7975 52.5547 16.875 54.2875V39.0625H31.875V51.6422ZM30 95.3125C16.56 95.3125 5.625 86.2 5.625 75C5.625 63.8 16.56 54.6875 30 54.6875C43.44 54.6875 54.375 63.8 54.375 75C54.375 86.2 43.44 95.3125 30 95.3125ZM56.4844 67.1875C54.1144 61.625 49.3125 57.0203 43.125 54.2875V32.8125H63.5156C64.4813 35.0766 65.8481 37.1781 67.5525 39.0625H46.875V54.6875H69.375V40.8812C70.5206 41.9141 71.775 42.8578 73.125 43.7062V56.2953C68.7544 59.0391 65.3812 62.8125 63.5156 67.1875H56.4844ZM65.625 42.1875V51.5625H50.625V42.1875H65.625ZM90 95.3125C76.56 95.3125 65.625 86.2 65.625 75C65.625 63.8 76.56 54.6875 90 54.6875C103.44 54.6875 114.375 63.8 114.375 75C114.375 86.2 103.44 95.3125 90 95.3125Z" fill="#444444"/>
<path d="M41.25 60.9375H26.25C23.8088 60.9375 21.7463 62.2484 20.97 64.0625H13.125V73.0953L28.125 76.2203V79.975C25.9481 80.6219 24.375 82.3406 24.375 84.375V87.5C24.375 90.0844 26.8988 92.1875 30 92.1875C33.1012 92.1875 35.625 90.0844 35.625 87.5V84.375C35.625 82.3406 34.0519 80.6219 31.875 79.975V73.7781L16.875 70.6531V67.1875H20.97C21.7463 69.0016 23.8088 70.3125 26.25 70.3125H41.25C44.3512 70.3125 46.875 68.2094 46.875 65.625C46.875 63.0406 44.3512 60.9375 41.25 60.9375ZM31.875 87.5C31.875 88.3625 31.0331 89.0625 30 89.0625C28.9669 89.0625 28.125 88.3625 28.125 87.5V84.375C28.125 83.5125 28.9669 82.8125 30 82.8125C31.0331 82.8125 31.875 83.5125 31.875 84.375V87.5ZM41.25 67.1875H26.25C25.2169 67.1875 24.375 66.4875 24.375 65.625C24.375 64.7625 25.2169 64.0625 26.25 64.0625H41.25C42.2831 64.0625 43.125 64.7625 43.125 65.625C43.125 66.4875 42.2831 67.1875 41.25 67.1875Z" fill="#444444"/>
<path d="M82.5 29.6875C83.4712 29.6875 84.4425 29.5781 85.4006 29.3578L95.3981 37.6891C96.4594 38.575 97.8731 39.0625 99.375 39.0625C100.877 39.0625 102.291 38.5734 103.352 37.6891C104.415 36.8047 105 35.6266 105 34.375C105 33.1234 104.415 31.9453 103.352 31.0609L93.3544 22.7297C93.6169 21.9312 93.75 21.1234 93.75 20.3125C93.75 15.1422 88.7044 10.9375 82.5 10.9375H81.7237L77.9737 14.0625L82.4325 17.7781C82.1456 19.0297 80.9588 20.0172 79.4606 20.2562L75 16.5406L71.25 19.6656V20.3125C71.25 25.4828 76.2956 29.6875 82.5 29.6875ZM77.9737 23.4375H78.75C82.8863 23.4375 86.25 20.6344 86.25 17.1875V16.5406L83.3212 14.0984C87.0712 14.4406 90 17.0969 90 20.3125C90 21.0672 89.82 21.8328 89.4675 22.5828L89.0175 23.5344L100.701 33.2687C101.059 33.5688 101.25 33.9516 101.25 34.375C101.25 34.7984 101.059 35.1813 100.701 35.4797C99.9806 36.0781 98.7694 36.0781 98.0494 35.4797L86.3681 25.7453L85.2262 26.1187C84.3225 26.4125 83.4056 26.5625 82.5 26.5625C78.6412 26.5625 75.4556 24.1219 75.045 20.9969L77.9737 23.4375Z" fill="#444444"/>
<path d="M84.3506 65.5141L81.0356 66.6156L89.2237 73.4375L84.8925 77.0484C82.8094 76.2656 80.1863 76.55 78.525 77.9359L74.775 81.0609C73.71 81.9453 73.125 83.1234 73.125 84.375C73.125 85.6266 73.71 86.8047 74.7731 87.6891C75.8344 88.575 77.2481 89.0625 78.75 89.0625C80.2519 89.0625 81.6656 88.5734 82.7269 87.6891L86.4769 84.5641C87.54 83.6797 88.125 82.5016 88.125 81.25C88.125 80.5406 87.9188 79.8641 87.5625 79.2422L91.875 75.6484L100.059 82.4687L101.385 79.7094C103.783 74.7078 105 69.4437 105 64.0625V62.5H103.125C96.6619 62.5 90.345 63.5141 84.3506 65.5141ZM83.8256 82.3547L80.0756 85.4797C79.3556 86.0781 78.1444 86.0781 77.4244 85.4797C77.0662 85.1813 76.875 84.7984 76.875 84.375C76.875 83.9516 77.0662 83.5687 77.4244 83.2703L81.1744 80.1453C81.5344 79.8469 81.9919 79.6875 82.5 79.6875C83.0081 79.6875 83.4656 79.8469 83.8256 80.1453C84.1838 80.4437 84.375 80.8266 84.375 81.25C84.375 81.6734 84.1838 82.0563 83.8256 82.3547ZM98.6531 76.875L87.75 67.7891C92.0962 66.5266 96.6094 65.8125 101.212 65.6578C101.025 69.4922 100.168 73.2531 98.6531 76.875Z" fill="#444444"/>
</svg>
