<svg width="120" height="100" viewBox="0 0 120 100" fill="none" xmlns="http://www.w3.org/2000/svg">
<path d="M82.0066 49.2055C81.5712 48.8422 80.9667 48.6334 80.3508 48.6334C79.7348 48.6334 79.1304 48.842 78.6947 49.2055C78.259 49.5688 78.0082 50.0723 78.0082 50.5856C78.0082 51.0989 78.2585 51.6026 78.6947 51.9655C79.1304 52.3286 79.7348 52.5377 80.3508 52.5377C80.9667 52.5377 81.5688 52.3289 82.0066 51.9655C82.4423 51.6026 82.6934 51.0989 82.6934 50.5856C82.6934 50.0723 82.4426 49.5686 82.0066 49.2055Z" fill="#444444"/>
<path d="M97.4517 5.29572H22.4888C21.1952 5.29572 20.1462 6.16993 20.1462 7.24786V38.4824C20.1462 39.5604 21.1952 40.4346 22.4888 40.4346H57.6277V48.6336H17.6088C16.3153 48.6336 15.2663 49.5078 15.2663 50.5858V65.8125H2.34258C1.04906 65.8125 0 66.6867 0 67.7647V92.7523C0 93.8303 1.04906 94.7045 2.34258 94.7045H32.3278C33.6213 94.7045 34.6704 93.8303 34.6704 92.7523V67.7647C34.6704 66.6867 33.6213 65.8125 32.3278 65.8125H19.9514V52.5379H57.6277V65.8125H45.0075C43.714 65.8125 42.6649 66.6867 42.6649 67.7647V92.7523C42.6649 93.8303 43.714 94.7045 45.0075 94.7045H74.9927C76.2862 94.7045 77.3353 93.8303 77.3353 92.7523V67.7647C77.3353 66.6865 76.2862 65.8125 74.9927 65.8125H62.313V52.5379H71.6834C72.9769 52.5379 74.0259 51.6637 74.0259 50.5858C74.0259 49.5078 72.9769 48.6336 71.6834 48.6336H62.313V40.4346H97.452C98.7455 40.4346 99.7945 39.5604 99.7945 38.4824V7.24786C99.7943 6.16974 98.7452 5.29572 97.4517 5.29572ZM29.9852 69.7168V90.8H4.68516V69.7168H29.9852ZM72.6499 69.7168V90.8H47.3501V69.7168H72.6499ZM95.1091 36.5301H24.8313V17.0086H40.7009C41.9944 17.0086 43.0434 16.1344 43.0434 15.0565C43.0434 13.9785 41.9944 13.1043 40.7009 13.1043H24.8313V9.20001H95.1089V36.5301H95.1091Z" fill="#444444"/>
<path d="M117.657 65.8125H104.674V50.5857C104.674 49.5078 103.625 48.6335 102.332 48.6335H89.4867C88.1932 48.6335 87.1441 49.5078 87.1441 50.5857C87.1441 51.6636 88.1932 52.5378 89.4867 52.5378H99.989V65.8125H87.6722C86.3787 65.8125 85.3296 66.6867 85.3296 67.7646V92.7523C85.3296 93.8302 86.3787 94.7044 87.6722 94.7044H117.657C118.951 94.7044 120 93.8302 120 92.7523V67.7646C120 66.6865 118.951 65.8125 117.657 65.8125ZM115.315 90.8H90.0147V69.7168H115.315V90.8Z" fill="#444444"/>
<path d="M52.2115 13.6761C51.7756 13.313 51.1711 13.1041 50.5554 13.1041C49.9369 13.1041 49.335 13.3127 48.8967 13.6761C48.4613 14.0392 48.2126 14.5429 48.2126 15.0562C48.2126 15.5697 48.461 16.0732 48.8967 16.4361C49.3348 16.7992 49.9392 17.0084 50.5554 17.0084C51.1716 17.0084 51.7734 16.7996 52.2115 16.4361C52.6472 16.0732 52.898 15.5695 52.898 15.0562C52.898 14.5429 52.6477 14.0392 52.2115 13.6761Z" fill="#444444"/>
</svg>
