<svg width="103" height="91" viewBox="0 0 103 91" fill="none" xmlns="http://www.w3.org/2000/svg">
<path d="M73.6289 70.3828C72.5184 70.3828 71.6172 71.1791 71.6172 72.1602C71.6172 73.1412 72.5184 73.9375 73.6289 73.9375C74.7394 73.9375 75.6406 73.1412 75.6406 72.1602C75.6406 71.1791 74.7394 70.3828 73.6289 70.3828Z" fill="white"/>
<path d="M78.5822 64.6354L69.0205 61.8201L65.5879 55.7546C68.6803 52.9737 70.8274 49.2943 71.5514 45.4565L71.9795 43.1895H75.6406C78.9684 43.1895 81.6758 40.7975 81.6758 37.8574V26.6602C81.6758 11.9597 68.1389 0 51.5 0C34.8184 0 21.3242 11.9254 21.3242 26.6602V37.8574C21.3242 40.1744 23.0062 42.1501 25.3477 42.8838V44.9668C25.3477 47.9069 28.055 50.2988 31.3828 50.2988H33.1495C34.0216 51.9726 35.1504 53.5228 36.524 54.9153C36.8088 55.2047 37.106 55.4851 37.4103 55.7579L33.9795 61.8201L24.4176 64.6356C13.2999 67.9109 5.23047 78.2513 5.23047 89.2227C5.23047 90.2043 6.13112 91 7.24219 91H95.7578C96.8687 91 97.7695 90.2043 97.7695 89.2227C97.7695 78.2513 89.7003 67.9109 78.5822 64.6354ZM77.6523 37.8574C77.6523 38.8374 76.7499 39.6348 75.6406 39.6348H72.5703C73.0817 36.1352 73.4225 32.4111 73.5595 28.7432C73.5635 28.6398 73.5667 28.5392 73.5704 28.4375H77.6523V37.8574ZM27.3594 39.6348C26.2501 39.6348 25.3477 38.8374 25.3477 37.8574V28.4375H29.431C29.4377 28.6229 29.4447 28.8091 29.4526 28.9967C29.4528 29.003 29.4532 29.0093 29.4534 29.0157C29.4534 29.0162 29.4534 29.0167 29.4534 29.0173C29.5942 32.5848 29.9306 36.2121 30.4303 39.6346H27.3594V39.6348ZM31.3828 46.7441C30.2736 46.7441 29.3711 45.9468 29.3711 44.9668V43.1895H31.0203L31.4484 45.4572C31.5301 45.8882 31.6305 46.3176 31.7465 46.7441H31.3828ZM29.3745 24.8828H25.4241C26.443 12.9709 37.695 3.55469 51.5 3.55469C65.2437 3.55469 76.5451 12.9696 77.5757 24.8828H73.6257C73.4808 15.0671 64.4335 7.10938 53.3007 7.10938H49.6997C38.5671 7.10938 29.5192 15.0671 29.3745 24.8828ZM49.6995 10.6641H53.3005C62.3148 10.6641 69.6107 17.1782 69.6055 25.1334C69.6055 25.6927 69.6004 26.1797 69.5898 26.6228C69.5898 26.6285 69.5896 26.6344 69.5896 26.6402L67.0733 26.3226C60.2375 25.4603 53.7831 22.6091 48.899 18.294C48.5216 17.9608 48.0101 17.7734 47.4766 17.7734C42.0739 17.7734 36.9022 19.9482 33.4834 23.6223C34.326 16.3852 41.2509 10.6641 49.6995 10.6641ZM35.9172 46.7441C34.9102 43.7843 33.7578 35.0753 33.5032 29.4945L36.2107 26.3049C38.6974 23.3765 42.5662 21.557 46.6815 21.3482C52.0965 25.9011 59.1017 28.9076 66.5044 29.8414L69.4661 30.2154C69.2681 33.9274 68.8635 37.6523 68.284 41.0781C68.2838 41.0792 68.2836 41.0805 68.2834 41.0817C68.0991 42.1831 67.9538 42.8919 67.5829 44.8717C66.5175 50.5174 61.7493 55.6229 55.4548 57.0133C52.8643 57.5847 50.1353 57.5845 47.5462 57.0133C43.6159 56.1452 40.0121 53.7426 37.6863 50.2988H41.7874C42.6179 52.3675 44.8539 53.8535 47.4766 53.8535H51.5C54.8344 53.8535 57.5352 51.4676 57.5352 48.5215C57.5352 45.5814 54.8278 43.1895 51.5 43.1895H47.4766C44.7955 43.1895 42.5925 44.7194 41.784 46.7441H35.9172ZM47.3074 60.6103C48.6872 60.8671 50.094 60.9984 51.5 60.9984C52.6006 60.9984 53.7014 60.917 54.7898 60.7592L51.2351 64.0805L47.3074 60.6103ZM48.4693 66.6644L42.0886 72.626C40.3319 69.6553 38.8226 66.5637 37.5845 63.3986L39.9807 59.1646L48.4693 66.6644ZM62.6783 58.5624L65.4151 63.3984C64.175 66.5688 62.6652 69.6616 60.9104 72.6287L54.081 66.5949L62.6783 58.5624ZM45.4648 48.5215C45.4648 47.5402 46.3657 46.7441 47.4766 46.7441H51.5C52.6093 46.7441 53.5117 47.5415 53.5117 48.5215C53.5117 49.5029 52.6107 50.2988 51.5 50.2988H47.4766C46.3673 50.2988 45.4648 49.5015 45.4648 48.5215ZM9.33438 87.4453C10.1316 78.6405 16.7641 70.6375 25.6901 68.0077L34.1582 65.5145C35.7096 69.3047 37.6316 72.9886 39.8841 76.4878C39.888 76.4939 39.8916 76.4999 39.8954 76.5058C39.8954 76.5059 39.8956 76.5059 39.8956 76.5061C41.5414 79.0635 43.3938 81.5627 45.4021 83.9352L47.8769 87.4453H9.33438ZM51.5 85.861L48.7717 81.9912C48.7411 81.9478 48.7085 81.9057 48.6739 81.8648C47.0448 79.9449 45.5252 77.9371 44.1411 75.8819L51.3155 69.1788L58.8752 75.8577C57.4818 77.9278 55.957 79.944 54.3265 81.8645C54.2279 81.9805 54.3677 81.7976 51.5 85.861ZM55.1231 87.4453L57.5977 83.9354C59.6149 81.5538 61.4805 79.0346 63.1428 76.4471C63.1529 76.4315 63.1623 76.4155 63.1724 76.3998C63.1736 76.3979 63.1748 76.3961 63.176 76.3941C65.4 72.9283 67.3019 69.2764 68.8418 65.5145L77.3097 68.0077C86.2359 70.6375 92.8684 78.6405 93.6656 87.4453H55.1231Z" fill="white"/>
<path d="M87.6196 80.2527C86.2752 77.8752 84.3059 75.763 81.9246 74.1445C81.0439 73.5457 79.781 73.6913 79.1036 74.4694C78.4261 75.2475 78.5908 76.3634 79.4714 76.962C81.3732 78.2546 82.946 79.9419 84.0201 81.8413C84.5176 82.7209 85.7266 83.075 86.7188 82.637C87.7126 82.1984 88.1159 81.1309 87.6196 80.2527Z" fill="white"/>
</svg>
