<svg width="103" height="91" viewBox="0 0 103 91" fill="none" xmlns="http://www.w3.org/2000/svg">
<g clip-path="url(#clip0)">
<path d="M51.5 11.375C50.3155 11.375 49.3542 10.5257 49.3542 9.47917V1.89583C49.3542 0.849333 50.3155 0 51.5 0C52.6845 0 53.6458 0.849333 53.6458 1.89583V9.47917C53.6458 10.5257 52.6845 11.375 51.5 11.375Z" fill="white"/>
<path d="M80.3314 21.9234C79.7821 21.9234 79.2327 21.7376 78.8122 21.3698C77.9753 20.6305 77.9753 19.4285 78.8122 18.6891L84.8806 13.3277C85.7175 12.5883 87.0779 12.5883 87.9148 13.3277C88.7517 14.0671 88.7517 15.2691 87.9148 16.0084L81.8464 21.3698C81.4301 21.7376 80.8807 21.9234 80.3314 21.9234Z" fill="white"/>
<path d="M100.854 47.3959H92.2708C91.0863 47.3959 90.125 46.5466 90.125 45.5001C90.125 44.4536 91.0863 43.6042 92.2708 43.6042H100.854C102.039 43.6042 103 44.4536 103 45.5001C103 46.5466 102.039 47.3959 100.854 47.3959Z" fill="white"/>
<path d="M86.3998 78.2296C85.8505 78.2296 85.3012 78.0438 84.8806 77.676L78.8122 72.3146C77.9753 71.5752 77.9753 70.3733 78.8122 69.6339C79.649 68.8945 81.0095 68.8945 81.8464 69.6339L87.9148 74.9953C88.7517 75.7347 88.7517 76.9366 87.9148 77.676C87.4985 78.0438 86.9492 78.2296 86.3998 78.2296Z" fill="white"/>
<path d="M51.5 91C50.3155 91 49.3542 90.1507 49.3542 89.1042V81.5208C49.3542 80.4743 50.3155 79.625 51.5 79.625C52.6845 79.625 53.6458 80.4743 53.6458 81.5208V89.1042C53.6458 90.1507 52.6845 91 51.5 91Z" fill="white"/>
<path d="M16.6002 78.2296C16.0508 78.2296 15.5015 78.0438 15.0809 77.676C14.244 76.9366 14.244 75.7347 15.0809 74.9953L21.1493 69.6339C21.9862 68.8945 23.3467 68.8945 24.1835 69.6339C25.0204 70.3733 25.0204 71.5752 24.1835 72.3146L18.1151 77.676C17.6988 78.0438 17.1495 78.2296 16.6002 78.2296Z" fill="white"/>
<path d="M10.7292 47.3959H2.14583C0.961333 47.3959 0 46.5466 0 45.5001C0 44.4536 0.961333 43.6042 2.14583 43.6042H10.7292C11.9137 43.6042 12.875 44.4536 12.875 45.5001C12.875 46.5466 11.9137 47.3959 10.7292 47.3959Z" fill="white"/>
<path d="M22.6686 21.9234C22.1192 21.9234 21.5699 21.7376 21.1493 21.3698L15.0852 16.0084C14.2483 15.2691 14.2483 14.0671 15.0852 13.3277C15.9221 12.5883 17.2825 12.5883 18.1194 13.3277L24.1878 18.6891C25.0247 19.4285 25.0247 20.6305 24.1878 21.3698C23.7672 21.7376 23.2179 21.9234 22.6686 21.9234Z" fill="white"/>
<path d="M45.3758 75.8335C45.1226 75.8335 44.8737 75.7955 44.6248 75.7159C43.6849 75.405 43.1141 74.5632 43.2471 73.6912L46.9079 49.2918H32.1875C31.3764 49.2918 30.6339 48.8861 30.2691 48.2453C29.9043 47.6045 29.9816 46.8348 30.4708 46.2585L56.2208 15.9251C56.8174 15.2199 57.8774 14.9696 58.783 15.3184C59.6928 15.6635 60.2207 16.509 60.0576 17.3735L56.1779 37.9168H70.8125C71.6022 37.9168 72.3274 38.2997 72.7008 38.914C73.0742 39.5282 73.0356 40.2714 72.6064 40.8591L47.1697 74.9841C46.762 75.5263 46.0796 75.8335 45.3758 75.8335ZM36.4792 45.5001H49.3542C49.9765 45.5001 50.5601 45.739 50.9678 46.1485C51.3755 46.5542 51.5644 47.104 51.4828 47.6462L48.7319 65.9903L66.8298 41.7085H53.6458C53.015 41.7085 52.4184 41.4658 52.0064 41.0373C51.5987 40.6127 51.4228 40.0477 51.53 39.5017L54.3754 24.4185L36.4792 45.5001Z" fill="white"/>
</g>
<defs>
<clipPath id="clip0">
<rect width="103" height="91" fill="white"/>
</clipPath>
</defs>
</svg>
