<svg width="20" height="21" viewBox="0 0 20 21" fill="none" xmlns="http://www.w3.org/2000/svg">
<g clip-path="url(#clip0)">
<path d="M9.99995 0.0898438C4.48601 0.0898438 0 4.56699 0 10.0703C0 15.5735 4.48601 20.0508 9.99995 20.0508C15.5139 20.0508 19.9999 15.5735 19.9999 10.0703C19.9999 4.56699 15.514 0.0898438 9.99995 0.0898438ZM15.7421 8.38448L9.45963 14.6547C9.1925 14.9213 8.83741 15.068 8.45967 15.068C8.08193 15.068 7.72684 14.9213 7.45971 14.6547L4.2578 11.459C3.99067 11.1924 3.84354 10.838 3.84354 10.461C3.84354 10.0839 3.99067 9.7295 4.2578 9.46289C4.52483 9.19629 4.87992 9.04944 5.25776 9.04944C5.6355 9.04944 5.9907 9.19628 6.25773 9.463L8.45957 11.6604L13.742 6.38836C14.0091 6.12175 14.3642 5.97501 14.7419 5.97501C15.1197 5.97501 15.4748 6.12175 15.7419 6.38836C16.2935 6.93886 16.2935 7.83419 15.7421 8.38448Z" fill="#2B526C"/>
</g>
<defs>
<clipPath id="clip0">
<rect y="0.0898438" width="20" height="19.9609" rx="9.98047" fill="white"/>
</clipPath>
</defs>
</svg>
