<svg width="103" height="91" viewBox="0 0 103 91" fill="none" xmlns="http://www.w3.org/2000/svg">
<path d="M69.1135 8.19457C69.1135 8.9791 68.3937 9.61506 67.5065 9.61506C66.6185 9.61506 65.8987 8.9791 65.8987 8.19457C65.8987 7.41074 66.6185 6.77478 67.5065 6.77478C68.3937 6.77478 69.1135 7.41074 69.1135 8.19457Z" fill="#444444"/>
<path d="M76.8201 8.19457C76.8201 8.9791 76.1003 9.61506 75.2123 9.61506C74.3243 9.61506 73.6053 8.9791 73.6053 8.19457C73.6053 7.41074 74.3243 6.77478 75.2123 6.77478C76.1003 6.77478 76.8201 7.41074 76.8201 8.19457Z" fill="#444444"/>
<path d="M84.5268 8.19457C84.5268 8.9791 83.8069 9.61506 82.919 9.61506C82.031 9.61506 81.3112 8.9791 81.3112 8.19457C81.3112 7.41074 82.031 6.77478 82.919 6.77478C83.8069 6.77478 84.5268 7.41074 84.5268 8.19457Z" fill="#444444"/>
<path d="M20.6712 44.6419L30.8092 38.7843C30.9632 38.6822 31.1942 38.6482 31.3868 38.6482C32.1969 38.6482 33.2374 39.3973 33.2374 40.3506C33.2374 40.7595 33.0056 41.1337 32.659 41.3385L24.5642 46.0381L32.659 50.7376C33.0056 50.9077 33.2374 51.2819 33.2374 51.7249C33.2374 52.6788 32.1969 53.3939 31.3868 53.3939C31.1942 53.3939 30.9632 53.3599 30.8092 53.2578L20.6712 47.4002C20.0936 47.0593 19.8233 46.4803 19.8233 46.0381C19.8233 45.5951 20.0936 44.9821 20.6712 44.6419Z" fill="#444444"/>
<path d="M54.6684 30.5433C54.6684 30.7474 54.6299 30.9175 54.5144 31.0876L40.368 56.0155C40.1369 56.4245 39.6356 56.6633 39.0957 56.6633C38.2093 56.6633 37.5924 56.0155 37.5924 55.4032C37.5924 55.2331 37.6309 55.0623 37.7079 54.8922L51.8929 29.8622C52.1239 29.4192 52.5483 29.2491 53.0496 29.2491C53.8205 29.2491 54.6684 29.7601 54.6684 30.5433Z" fill="#444444"/>
<path d="M71.5512 47.4002L61.414 53.2578C61.26 53.3599 61.0667 53.3939 60.8741 53.3939C60.0262 53.3939 59.0243 52.6788 59.0243 51.7249C59.0243 51.2826 59.2553 50.9077 59.5642 50.7376L67.6967 46.0381L59.5642 41.3385C59.2553 41.1344 59.0243 40.7595 59.0243 40.3506C59.0243 39.3973 60.0262 38.6482 60.8741 38.6482C61.0667 38.6482 61.26 38.6822 61.414 38.7843L71.5512 44.6419C72.1295 44.9821 72.3991 45.5951 72.3991 46.0381C72.3991 46.4803 72.168 47.0593 71.5512 47.4002Z" fill="#444444"/>
<path d="M42.1164 6.86145H9.2995C8.46652 6.86145 7.79071 7.45853 7.79071 8.19446C7.79071 8.93108 8.46652 9.52747 9.2995 9.52747H42.1164C42.9494 9.52747 43.6252 8.93108 43.6252 8.19446C43.6252 7.45853 42.9494 6.86145 42.1164 6.86145Z" fill="#444444"/>
<path d="M53.6249 79.7812H4.86663C3.84741 79.7812 3.01758 79.0481 3.01758 78.1476V15.5011H89.296V45.2424C89.296 45.9784 89.971 46.5754 90.8047 46.5754C91.6377 46.5754 92.3135 45.9784 92.3135 45.2424V5.18832C92.3135 2.81737 90.1297 0.888672 87.4461 0.888672H4.86663C2.18303 0.888672 0 2.81737 0 5.18832V78.1469C0 80.5178 2.18303 82.4472 4.86663 82.4472H53.6249C54.4579 82.4472 55.1337 81.8502 55.1337 81.1142C55.1337 80.3776 54.4579 79.7812 53.6249 79.7812ZM3.01758 5.18832C3.01758 4.28784 3.84741 3.55469 4.86663 3.55469H87.4461C88.4661 3.55469 89.296 4.28784 89.296 5.18832V12.8351H3.01758V5.18832Z" fill="#444444"/>
<path d="M101.749 55.6287L95.4843 50.0947C94.6773 49.3816 93.6054 48.9894 92.4636 48.9894H92.4565C91.3124 48.9908 90.2389 49.3865 89.4327 50.1037L84.2847 54.6817C80.0868 58.0573 71.0797 58.8279 67.3965 59.0029C64.9416 59.1195 62.8725 60.6886 62.3648 62.8186L56.5434 87.2495C56.3588 88.0257 56.6252 88.8241 57.2562 89.3871L57.2656 89.3955C57.275 89.4038 57.2853 89.4121 57.2947 89.4205C57.7968 89.8509 58.4585 90.0842 59.1429 90.0842C59.326 90.0842 59.5107 90.0675 59.6946 90.0335L87.3471 84.8903C89.758 84.4418 91.534 82.6138 91.6652 80.4449C91.8632 77.1901 92.7363 69.2289 96.5593 65.5215L101.739 60.976C102.55 60.2637 102.998 59.3146 103 58.3045C103.002 57.2936 102.558 56.3438 101.749 55.6287ZM88.6523 80.3019C88.5934 81.2676 87.8013 82.0813 86.7255 82.2812L62.3122 86.8218L72.4423 77.8719C73.4065 78.3787 74.4957 78.6328 75.5848 78.6328C77.1565 78.6328 78.7289 78.1038 79.9257 77.0464C81.0856 76.0224 81.7245 74.6595 81.7245 73.2105C81.7245 71.7623 81.0856 70.4001 79.9257 69.3754C78.7666 68.3506 77.2241 67.7862 75.5848 67.7862C73.9448 67.7862 72.403 68.3506 71.2431 69.3754C70.0832 70.3994 69.4444 71.7623 69.4444 73.2105C69.4444 74.2041 69.7445 75.1566 70.3072 75.9876L60.1787 84.9368L65.318 63.3678C65.5443 62.4173 66.4661 61.7175 67.5584 61.6654C72.1751 61.4468 80.2919 60.5997 85.2253 57.4352L93.4404 64.6932C89.8586 69.0518 88.9007 76.223 88.6523 80.3019ZM72.4619 73.2105C72.4619 72.4739 72.7873 71.781 73.3766 71.2603C73.9668 70.7389 74.7503 70.4522 75.5848 70.4522C76.4186 70.4522 77.2028 70.7389 77.7922 71.2603C78.3824 71.781 78.7069 72.4739 78.7069 73.2105C78.7069 73.9479 78.3824 74.6401 77.7922 75.1615C76.5765 76.2355 74.5994 76.2369 73.3821 75.1656C73.3806 75.1642 73.3782 75.1628 73.3766 75.1615C73.3751 75.1601 73.3735 75.158 73.3719 75.1566C72.7849 74.6366 72.4619 73.9451 72.4619 73.2105ZM99.6123 59.0848L95.4725 62.718L87.461 55.6398L91.5733 51.9824C91.8106 51.772 92.1257 51.6554 92.4612 51.6554H92.4636C92.7992 51.6554 93.1143 51.77 93.3508 51.9796L99.6154 57.5144C99.8527 57.7241 99.9832 58.0031 99.9824 58.2996C99.9816 58.5968 99.8504 58.8752 99.6123 59.0848Z" fill="#444444"/>
</svg>
