<svg width="30" height="30" viewBox="0 0 30 30" fill="none" xmlns="http://www.w3.org/2000/svg">
<path fill-rule="evenodd" clip-rule="evenodd" d="M15 0C23.2787 0 30 6.72129 30 15C30 23.2787 23.2787 30 15 30C6.72129 30 0 23.2787 0 15C0 6.72129 6.72129 0 15 0ZM12.3579 22.978C18.9956 22.978 22.625 17.4778 22.625 12.711C22.625 12.5539 22.625 12.3967 22.6175 12.247C23.3209 11.7382 23.9346 11.1021 24.4209 10.3763C23.7774 10.6606 23.0814 10.8552 22.3481 10.945C23.0964 10.496 23.6651 9.79254 23.9346 8.94697C23.2386 9.35854 22.4678 9.65783 21.6446 9.82248C20.9861 9.11906 20.0507 8.68506 19.0106 8.68506C17.02 8.68506 15.4037 10.3014 15.4037 12.292C15.4037 12.5763 15.4336 12.8532 15.5009 13.1151C12.5002 12.9654 9.84357 11.5287 8.06262 9.34354C7.75576 9.87486 7.57617 10.496 7.57617 11.1545C7.57617 12.4042 8.21227 13.5117 9.1851 14.1553C8.59389 14.1403 8.04012 13.9757 7.55373 13.7063V13.7512C7.55373 15.5023 8.79592 16.954 10.4497 17.2908C10.1504 17.373 9.82863 17.418 9.49939 17.418C9.26736 17.418 9.04289 17.3955 8.81842 17.3506C9.27486 18.7874 10.6069 19.8276 12.1859 19.8575C10.9511 20.8229 9.39463 21.3991 7.70338 21.3991C7.41152 21.3991 7.12717 21.3841 6.84281 21.3467C8.4218 22.3794 10.3225 22.978 12.3579 22.978Z" fill="white"/>
</svg>
