<svg width="100" height="100" viewBox="0 0 100 100" fill="none" xmlns="http://www.w3.org/2000/svg">
<path d="M79.4922 0H20.5078C9.19981 0 0 9.19981 0 20.5078V79.4922C0 90.8002 9.19981 100 20.5078 100H79.4922C90.8002 100 100 90.8002 100 79.4922V20.5078C100 9.19981 90.8002 0 79.4922 0ZM30.7908 77.0537C29.8875 78.6184 28.2428 79.4939 26.5539 79.4941C25.726 79.4941 24.8877 79.2838 24.1207 78.841C21.7891 77.4949 20.9873 74.5027 22.3334 72.1711L23.2938 70.5078H34.5701L30.7908 77.0537ZM21.582 66.6016C18.8896 66.6016 16.6992 64.4111 16.6992 61.7188C16.6992 59.0264 18.8896 56.8359 21.582 56.8359H31.1871L44.3617 34.0168L40.7912 27.8324C39.4451 25.5008 40.2467 22.5086 42.5783 21.1623H42.5785C44.9102 19.8162 47.9023 20.6182 49.2484 22.9496L50 24.2514L50.7516 22.9498C52.0982 20.618 55.0904 19.8164 57.4215 21.1625C58.551 21.8146 59.359 22.8676 59.6965 24.1273C60.0342 25.3871 59.8607 26.7031 59.2086 27.8326L42.4635 56.8359H53.0258L58.6641 66.6016H21.582ZM78.418 66.6016H74.451L77.6664 72.1709C79.0127 74.5023 78.2109 77.4945 75.8795 78.8408C75.127 79.2752 74.2918 79.4973 73.4457 79.4973C73.0215 79.4973 72.5949 79.4416 72.174 79.3287C70.9141 78.991 69.8611 78.183 69.209 77.0533L52.2551 47.6885L57.8932 37.9229L68.8129 56.8359H78.418C81.1104 56.8359 83.3008 59.0264 83.3008 61.7188C83.3008 64.4111 81.1104 66.6016 78.418 66.6016Z" fill="#DDDDDD"/>
</svg>
