<svg width="100" height="100" viewBox="0 0 100 100" fill="none" xmlns="http://www.w3.org/2000/svg">
<path d="M79.4922 0H20.5078C9.19981 0 0 9.19981 0 20.5078V79.4922C0 90.8002 9.19981 100 20.5078 100H79.4922C90.8002 100 100 90.8002 100 79.4922V20.5078C100 9.19981 90.8002 0 79.4922 0ZM82.2266 74.4141C82.2266 76.032 80.9148 77.3438 79.2969 77.3438H20.7031C19.0852 77.3438 17.7734 76.032 17.7734 74.4141V57.8125H35.351C37.1693 57.8125 38.8057 58.777 39.6221 60.3297C41.6557 64.1982 45.6324 66.6016 50 66.6016C54.3676 66.6016 58.3443 64.1982 60.3779 60.3299C61.1943 58.7771 62.8309 57.8125 64.649 57.8125H82.2266V74.4141ZM82.2266 51.9531H64.649C60.6477 51.9531 57.0238 54.1182 55.1914 57.6033C54.1736 59.5395 52.1846 60.7422 50 60.7422C47.8154 60.7422 45.8264 59.5395 44.8086 57.6033C42.9762 54.1182 39.3523 51.9531 35.351 51.9531H17.7734V46.0938H82.2266V51.9531ZM82.2266 40.2344H17.7734V34.375H82.2266V40.2344ZM82.2266 28.5156H17.7734V25.5859C17.7734 23.968 19.0852 22.6562 20.7031 22.6562H79.2969C80.9148 22.6562 82.2266 23.968 82.2266 25.5859V28.5156Z" fill="#DDDDDD"/>
</svg>
