<svg width="100" height="100" viewBox="0 0 100 100" fill="none" xmlns="http://www.w3.org/2000/svg">
<path d="M26.3672 53.7109L20.5078 67.5781L26.3672 65.625L32.2266 67.5781L26.3672 53.7109Z" fill="#DDDDDD"/>
<path d="M79.4922 0H20.5078C9.19981 0 0 9.19981 0 20.5078V79.4922C0 90.8002 9.19981 100 20.5078 100H79.4922C90.8002 100 100 90.8002 100 79.4922V20.5078C100 9.19981 90.8002 0 79.4922 0ZM14.6482 7.08633V22.9346L6.87441 15.1607C8.29492 11.5514 11.1068 8.63848 14.6482 7.08633ZM32.2264 75.1406V94.1406H20.5078H20.5076V75.1402C15.3395 72.8752 11.7188 67.7131 11.7188 61.7188C11.7188 55.7244 15.3395 50.5623 20.5076 48.2973V5.85938H20.5078H32.2264V48.2969C37.3945 50.5619 41.0156 55.7242 41.0156 61.7188C41.0156 67.7133 37.3945 72.8756 32.2264 75.1406ZM84.8393 93.1256L77.5246 85.8109C74.6228 87.3859 71.3008 88.2812 67.7734 88.2812C56.4654 88.2812 47.2656 79.0814 47.2656 67.7734C47.2656 64.3346 48.1143 61.0031 49.7326 58.0191L38.0855 46.3721V29.7992L62.0703 53.784C63.4256 53.1732 64.6918 52.3568 65.8193 51.3475L67.7734 49.5984L69.7273 51.3477C72.415 53.7533 75.8828 55.0781 79.4922 55.0781C80.2594 55.0781 81.032 55.0178 81.7885 54.8988L83.6074 54.6127L84.6541 56.1273C87.0269 59.5613 88.2812 63.5885 88.2812 67.7734C88.2812 71.3008 87.3859 74.6227 85.8109 77.5246L93.1256 84.8393C91.6371 88.6209 88.6209 91.6371 84.8393 93.1256ZM94.1406 48.9281C71.0184 47.4773 52.5227 28.9816 51.0719 5.85938H65.7619C67.1508 20.8875 79.1125 32.8492 94.1406 34.2381V48.9281Z" fill="#DDDDDD"/>
<path d="M82.1635 65.0391H53.3834C53.2143 65.9336 53.125 66.8477 53.125 67.7734C53.125 75.8506 59.6963 82.4219 67.7734 82.4219C75.8506 82.4219 82.4219 75.8506 82.4219 67.7734C82.4219 66.8477 82.3326 65.9336 82.1635 65.0391Z" fill="#DDDDDD"/>
</svg>
