<svg width="100" height="100" viewBox="0 0 100 100" fill="none" xmlns="http://www.w3.org/2000/svg">
<g clip-path="url(#clip0)">
<path d="M85.4166 100C77.375 100 70.8333 93.4583 70.8333 85.4167V69.7917C70.8333 65.7708 74.1041 62.5 78.125 62.5H92.7083C96.7292 62.5 100 65.7708 100 69.7917V85.4167C100 93.4583 93.4583 100 85.4166 100Z" fill="#DDDDDD"/>
<path d="M41.6667 91.6665C30.1792 91.6665 20.8333 82.3207 20.8333 70.8332V49.9998H29.1667V70.8332C29.1667 77.7248 34.775 83.3332 41.6667 83.3332C48.5583 83.3332 54.1667 77.7248 54.1667 70.8332V46.8748C54.1667 37.1082 62.1083 29.1665 71.875 29.1665C81.6417 29.1665 89.5833 37.1082 89.5833 46.8748V65.6248H81.25V46.8748C81.25 41.7082 77.0417 37.4998 71.875 37.4998C66.7083 37.4998 62.5 41.7082 62.5 46.8748V70.8332C62.5 82.3207 53.1542 91.6665 41.6667 91.6665Z" fill="#DDDDDD"/>
<path d="M48.0246 16.9959C45.9579 12.15 42.5913 9.12088 38.5371 8.46255C35.7829 8.00838 32.9746 8.70421 30.2204 10.5C28.4329 11.6584 26.7288 12.2417 25.1496 12.2417C23.4704 12.2417 21.4621 11.5917 19.7829 10.5C17.8829 9.26255 14.8871 7.90421 11.4579 8.46255C7.40378 9.12088 4.04128 12.15 1.97462 17C-0.0587166 21.7792 -0.54205 27.7334 0.616283 33.7667C1.76628 39.7875 4.41628 45.2167 8.07878 49.0584C11.2288 52.3625 15.4621 54.7834 19.9996 54.0375C21.7913 53.75 23.4663 52.9667 24.9954 51.7042C29.8746 55.725 36.5413 54.6917 41.9163 49.0542C45.5788 45.2125 48.2288 39.7834 49.3788 33.7625C50.5413 27.7334 50.0579 21.7792 48.0246 16.9959Z" fill="#DDDDDD"/>
<path d="M27.2542 20.4999C27.1417 20.4999 27.025 20.4957 26.9083 20.4874C24.6125 20.2957 22.9083 18.2874 23.0958 15.9915C23.4167 12.104 22.1083 9.59152 18.85 7.83319C16.8292 6.73735 16.0708 4.21235 17.1667 2.18319C18.2625 0.154022 20.7833 -0.600145 22.8167 0.499855C29.0292 3.85819 32 9.45402 31.4042 16.6749C31.2208 18.8499 29.4042 20.4999 27.2542 20.4999Z" fill="#DDDDDD"/>
</g>
<defs>
<clipPath id="clip0">
<rect width="100" height="100" fill="white"/>
</clipPath>
</defs>
</svg>
