<svg width="446" height="306" viewBox="0 0 446 306" fill="none" xmlns="http://www.w3.org/2000/svg">
<path d="M388.49 306C420.252 306 446 302.906 446 299.089C446 295.272 420.252 292.178 388.49 292.178C356.727 292.178 330.979 295.272 330.979 299.089C330.979 302.906 356.727 306 388.49 306Z" fill="#444444"/>
<path d="M173.621 10.141H0V110.445H173.621V10.141Z" fill="#F2F2F2"/>
<path d="M117.429 83.8471C122.664 78.9993 126.229 72.8228 127.674 66.0987C129.118 59.3746 128.377 52.4049 125.543 46.0709C122.71 39.737 117.913 34.3232 111.757 30.5143C105.601 26.7054 98.3641 24.6724 90.9607 24.6724V59.3362L117.429 83.8471Z" fill="#D1DCE3"/>
<path d="M90.9607 24.6724C82.6408 24.6734 74.5583 27.2408 67.9895 31.9693C61.4207 36.6978 56.7401 43.3179 54.6867 50.7841C52.6333 58.2504 53.3241 66.1373 56.6502 73.1995C59.9762 80.2617 65.7479 86.0966 73.0538 89.7828L90.9607 59.3362V24.6724Z" fill="#2B526C"/>
<path d="M117.429 83.8472L90.9607 59.3362L73.0538 89.7828C80.152 93.3591 88.3089 94.7135 96.3067 93.6437C104.304 92.5739 111.714 89.1374 117.429 83.8472Z" fill="#6F8C9F"/>
<path d="M17.6893 88.8372H10.5214V95.475H17.6893V88.8372Z" fill="#2B526C"/>
<path d="M28.0429 88.8372H20.875V95.475H28.0429V88.8372Z" fill="#6F8C9F"/>
<path d="M38.3964 88.8372H31.2286V95.475H38.3964V88.8372Z" fill="#D1DCE3"/>
<path d="M163.834 90.3123H134.366V91.4186H163.834V90.3123Z" fill="#444444"/>
<path d="M163.834 93.6312H134.366V94.7374H163.834V93.6312Z" fill="#444444"/>
<path d="M163.834 96.95H134.366V98.0563H163.834V96.95Z" fill="#444444"/>
<path d="M153.313 149.902H54.5554V250.206H153.313V149.902Z" fill="#F2F2F2"/>
<path d="M69.0122 232.302H63.6875V237.233H69.0122V232.302Z" fill="#2B526C"/>
<path d="M76.7034 232.302H71.3787V237.233H76.7034V232.302Z" fill="#6F8C9F"/>
<path d="M84.3946 232.302H79.0699V237.233H84.3946V232.302Z" fill="#D1DCE3"/>
<path d="M144.127 234.444H123.42V235.221H144.127V234.444Z" fill="#3F3D56"/>
<path d="M144.127 236.776H123.42V237.553H144.127V236.776Z" fill="#3F3D56"/>
<path d="M144.127 239.108H123.42V239.886H144.127V239.108Z" fill="#3F3D56"/>
<path d="M107.889 161.015V169.128C113.087 169.128 118.169 170.555 122.491 173.23C126.813 175.904 130.182 179.705 132.171 184.152C134.16 188.6 134.681 193.493 133.666 198.214C132.652 202.936 130.149 207.272 126.474 210.676L132.668 216.413C137.569 211.874 140.907 206.092 142.259 199.797C143.611 193.502 142.917 186.977 140.265 181.048C137.612 175.118 133.121 170.05 127.358 166.484C121.595 162.918 114.82 161.015 107.889 161.015Z" fill="#D1DCE3"/>
<path d="M132.668 216.413L126.474 210.676C121.98 214.838 116.01 217.351 109.669 217.749C103.329 218.147 97.0471 216.403 91.9882 212.841L86.6857 219.302C93.432 224.051 101.808 226.374 110.262 225.843C118.716 225.312 126.677 221.961 132.668 216.413Z" fill="#6F8C9F"/>
<path d="M81.6071 193.466C81.6071 187.011 84.3762 180.821 89.305 176.256C94.2339 171.692 100.919 169.128 107.889 169.128V161.015C100.553 161.015 93.4026 163.147 87.4446 167.11C81.4867 171.073 77.0221 176.668 74.6801 183.106C72.3382 189.544 72.2371 196.5 74.3909 202.994C76.5448 209.488 80.8451 215.192 86.6857 219.302L91.9882 212.841C88.7596 210.574 86.1422 207.644 84.3411 204.283C82.54 200.921 81.6042 197.219 81.6071 193.466Z" fill="#2B526C"/>
<path d="M370.986 51.9932C370.986 51.9932 369.361 63.1706 373.539 64.4603C377.718 65.75 376.557 75.6377 376.557 75.6377L364.023 84.4507L352.881 85.3105L350.096 71.9836L351.72 68.5444C351.72 68.5444 357.988 61.6659 353.577 54.5726C349.167 47.4792 370.986 51.9932 370.986 51.9932Z" fill="#FFB9B9"/>
<path opacity="0.1" d="M370.986 51.9932C370.986 51.9932 369.361 63.1706 373.539 64.4603C377.718 65.75 376.557 75.6377 376.557 75.6377L364.023 84.4507L352.881 85.3105L350.096 71.9836L351.72 68.5444C351.72 68.5444 357.988 61.6659 353.577 54.5726C349.167 47.4792 370.986 51.9932 370.986 51.9932Z" fill="black"/>
<path d="M359.38 139.048L344.757 170.861C344.757 170.861 333.383 164.842 326.652 165.487C319.92 166.132 311.564 158.609 311.564 158.609L319.92 121.207L335.472 81.4414L357.059 94.1235L359.38 139.048Z" fill="#6F8C9F"/>
<path opacity="0.1" d="M359.38 139.048L344.757 170.861C344.757 170.861 333.383 164.842 326.652 165.487C319.92 166.132 311.564 158.609 311.564 158.609L319.92 121.207L335.472 81.4414L357.059 94.1235L359.38 139.048Z" fill="#6F8C9F"/>
<path d="M382.36 274.252V284.57H371.915L373.539 272.533L382.36 274.252Z" fill="#6F8C9F"/>
<path d="M409.518 256.411L417.178 260.71L411.607 272.533L405.804 271.888L400.233 264.58L409.518 256.411Z" fill="#6F8C9F"/>
<path d="M384.449 136.039L398.144 165.917C398.144 165.917 393.269 199.019 393.501 201.814C393.734 204.608 393.966 205.683 392.805 208.047C391.645 210.412 391.18 211.916 391.877 214.711C392.573 217.505 392.805 218.58 392.341 219.655C391.877 220.729 388.627 265.009 387.002 268.019C385.377 271.028 387.931 275.972 386.306 276.402C384.681 276.832 372.611 275.757 371.915 273.177C371.218 270.598 374.236 264.364 372.611 262.43C370.986 260.495 372.843 190.851 370.522 186.122C368.201 181.393 342.668 177.094 342.668 177.094C342.668 177.094 340.347 163.338 341.739 161.188C343.132 159.039 344.989 145.497 344.989 145.497L384.449 136.039Z" fill="#444444"/>
<path d="M370.986 282.85C370.986 282.85 377.485 275.757 383.056 282.85C383.056 282.85 383.52 291.233 387.466 292.953C391.412 294.673 389.556 301.551 383.985 301.766C378.414 301.981 371.218 302.841 370.986 300.046C370.754 297.252 371.915 295.532 369.826 294.673C367.736 293.813 369.826 288.869 369.826 288.869L370.986 282.85Z" fill="#444444"/>
<path d="M371.682 180.104C371.682 180.104 371.45 195.58 369.826 197.73C368.201 199.879 367.272 201.169 368.201 203.533C369.129 205.898 370.522 210.197 369.826 211.057C369.129 211.917 370.522 216.43 370.522 216.43C370.522 216.43 388.395 224.384 396.751 240.935C396.751 240.935 405.34 254.047 407.893 254.262C410.446 254.477 413.464 252.757 412.071 257.701C410.678 262.645 405.34 269.093 401.394 268.449C397.448 267.804 394.43 261.57 394.43 261.57C394.43 261.57 363.558 232.552 360.309 231.692C357.059 230.832 347.774 223.954 346.15 219.655C344.525 215.356 341.043 179.459 342.668 177.095C344.293 174.73 350.328 171.506 350.328 171.506L371.682 180.104Z" fill="#444444"/>
<path d="M411.839 255.552C411.839 255.552 426.23 255.981 426.462 259.206C426.694 262.43 420.427 281.561 421.356 286.075C422.284 290.589 414.16 300.906 408.821 298.757C403.483 296.607 407.661 285.43 407.661 285.43C407.661 285.43 402.322 270.168 403.251 269.953C404.179 269.738 413.464 267.159 412.999 264.58C412.535 262 411.839 255.552 411.839 255.552Z" fill="#444444"/>
<path d="M360.193 63.493C368.141 63.493 374.584 57.5264 374.584 50.1661C374.584 42.8058 368.141 36.8391 360.193 36.8391C352.245 36.8391 345.801 42.8058 345.801 50.1661C345.801 57.5264 352.245 63.493 360.193 63.493Z" fill="#FFB9B9"/>
<path d="M374.7 70.6939C374.7 70.6939 366.808 78.4321 361.005 77.1424C355.202 75.8527 352.185 66.6098 352.185 66.6098L341.739 64.8902C341.739 64.8902 334.312 95.4132 334.312 98.4225C334.312 101.432 341.739 133.889 341.739 139.693C341.739 145.497 335.704 148.936 344.989 148.721C354.274 148.506 349.863 145.712 363.326 145.497C376.789 145.282 378.878 148.076 381.664 143.562C383.563 140.617 385.908 137.939 388.627 135.609L383.753 119.703L383.056 74.7779C383.056 74.7779 377.105 64.0304 374.394 64.8902C374.394 64.8902 375.861 69.6191 374.7 70.6939Z" fill="#2B526C"/>
<path d="M371.841 62.9891C371.841 62.9891 384.217 64.2453 387.699 66.6098C391.18 68.9743 400.929 70.6938 400.697 72.4135C400.465 74.1331 389.324 98.6375 389.324 98.6375C389.324 98.6375 384.217 117.983 388.627 122.497C393.037 127.011 409.518 176.235 406.732 180.319C403.947 184.403 395.126 167.852 395.126 167.852C395.126 167.852 383.288 132.385 376.789 126.366C370.29 120.347 369.826 87.8899 369.826 86.3853C369.826 84.8806 371.841 62.9891 371.841 62.9891Z" fill="#6F8C9F"/>
<path d="M353.739 65.4822C353.739 65.4822 338.49 60.1613 333.151 62.3108C327.812 64.4603 324.563 64.8902 324.563 64.8902L322.706 85.9554C322.706 85.9554 322.009 116.263 315.974 123.572C309.939 130.88 305.993 161.403 306.922 164.412C307.85 167.422 305.297 172.581 309.243 171.291C313.189 170.001 324.098 140.338 324.098 140.338C324.098 140.338 324.098 123.357 330.598 118.628C337.097 113.899 347.774 94.3385 348.239 89.6096C348.703 84.8806 353.113 71.7686 353.113 71.7686L353.739 65.4822Z" fill="#6F8C9F"/>
<path d="M406.036 133.245C406.036 133.245 399.072 145.282 398.144 147.431C397.215 149.581 390.716 164.197 381.431 160.973C372.147 157.749 390.484 142.058 390.484 142.058L394.662 128.946C394.662 128.946 405.572 126.796 406.036 133.245Z" fill="#FFB9B9"/>
<path d="M326.884 64.8902H324.563C324.563 64.8902 322.241 63.1706 319.456 64.2454C316.671 65.3201 310.171 63.8155 310.171 64.4603C310.171 65.1052 302.976 62.5258 299.958 63.8155C296.941 65.1052 286.031 65.5351 286.031 65.5351C286.031 65.5351 281.621 75.8527 284.638 77.7872C287.656 79.7218 292.066 78.2172 294.155 79.7218C296.244 81.2265 300.19 79.5069 301.583 81.4414C302.976 83.376 308.082 86.8152 309.243 84.6657C310.403 82.5162 308.082 80.5816 312.957 82.9461C317.831 85.3105 325.491 85.3105 325.491 85.3105L326.884 64.8902Z" fill="#6F8C9F"/>
<path d="M361.49 40.3195C359.543 39.9028 357.521 40.3646 355.549 40.6639C353.576 40.9633 351.402 41.062 349.734 40.0428C348.502 39.2902 347.744 38.045 347.033 36.8473C346.736 36.4196 346.538 35.9395 346.452 35.4374C346.368 34.5516 346.976 33.7434 347.623 33.0857C350.624 30.0306 355.01 28.3584 359.433 27.8272C363.069 27.3906 366.86 27.683 370.217 29.0467C373.575 30.4105 376.461 32.9078 377.781 36.0753C378.389 37.6964 378.769 39.3834 378.911 41.0945C379.11 42.3534 379.136 43.6308 378.987 44.8957C378.809 45.8334 378.543 46.7549 378.191 47.6496L376.005 53.764C375.848 54.3418 375.554 54.8801 375.145 55.3401C374.935 55.5654 374.651 55.7216 374.337 55.7853C374.023 55.849 373.696 55.8168 373.403 55.6935C373.578 55.0294 373.605 54.3392 373.481 53.6651C373.413 53.3292 373.237 53.02 372.978 52.7773C372.718 52.5345 372.385 52.3694 372.023 52.3032C371.217 52.224 370.529 52.8026 369.764 53.0518C369.396 53.1527 369.01 53.1821 368.629 53.138C368.249 53.094 367.882 52.9775 367.553 52.7958C367.223 52.6141 366.938 52.3712 366.714 52.0824C366.491 51.7936 366.335 51.4652 366.255 51.1177C366.135 50.4187 366.337 49.6703 366.051 49.0139C365.716 48.2448 364.827 47.8418 364.159 47.2891C363.55 46.7683 363.113 46.0973 362.902 45.3548C362.69 44.6123 362.712 43.8293 362.964 43.0979C363.143 42.589 363.648 42.3577 363.547 41.7731C363.414 41.0062 362.193 40.47 361.49 40.3195Z" fill="#2F2E41"/>
<path d="M300.652 83.2125H201.895V183.516H300.652V83.2125Z" fill="#F2F2F2"/>
<path d="M211.407 88.8936V165.596H291.448" stroke="#444444" stroke-width="2" stroke-miterlimit="10"/>
<path d="M233.707 138.677H215.787V165.228H233.707V138.677Z" fill="#D1DCE3"/>
<path d="M259.591 120.607H241.671V165.228H259.591V120.607Z" fill="#6F8C9F"/>
<path d="M285.475 99.5878H267.555V165.228H285.475V99.5878Z" fill="#2B526C"/>
<path d="M215.537 171.613H210.213V176.543H215.537V171.613Z" fill="#2B526C"/>
<path d="M223.228 171.613H217.904V176.543H223.228V171.613Z" fill="#6F8C9F"/>
<path d="M230.92 171.613H225.595V176.543H230.92V171.613Z" fill="#D1DCE3"/>
<path d="M290.652 173.754H269.945V174.531H290.652V173.754Z" fill="#444444"/>
<path d="M290.652 176.086H269.945V176.864H290.652V176.086Z" fill="#444444"/>
<path d="M288.43 65.5227C292.662 65.6931 295.807 69.2474 295.349 73.1476C294.934 76.681 293.404 81.0777 288.584 82.7665C279.996 85.7758 280.46 68.7947 282.085 68.1498C283.168 67.72 284.871 65.3794 288.43 65.5227Z" fill="#FFB9B9"/>
<path d="M398.144 71.2651L400.697 72.4135C400.697 72.4135 406.268 82.9461 406.5 84.4507C406.732 85.9554 410.446 91.5441 409.054 93.0488C407.661 94.5534 405.572 98.4225 406.964 99.9272C408.357 101.432 411.607 107.45 411.607 109.6C411.607 111.75 408.125 117.553 410.446 118.198C412.767 118.843 412.071 127.226 411.607 127.871C411.143 128.516 405.108 139.048 405.108 139.048C405.108 139.048 403.947 127.011 392.573 131.955C392.573 131.955 391.645 125.936 392.573 125.506C393.502 125.076 395.823 122.497 393.966 122.067C392.109 121.637 389.556 116.478 390.02 115.834C390.484 115.189 391.645 114.329 390.484 113.684C389.323 113.039 388.395 109.385 388.627 108.74C388.859 108.095 386.074 105.086 386.074 105.086L398.144 71.2651Z" fill="#6F8C9F"/>
</svg>
