<?xml version="1.0" encoding="utf-8"?>
<!-- Generator: Adobe Illustrator 24.0.2, SVG Export Plug-In . SVG Version: 6.00 Build 0)  -->
<svg version="1.1"
	 id="svg13567" inkscape:version="1.0 (4035a4fb49, 2020-05-01)" sodipodi:docname="Sohag.svg" xmlns:cc="http://creativecommons.org/ns#" xmlns:dc="http://purl.org/dc/elements/1.1/" xmlns:inkscape="http://www.inkscape.org/namespaces/inkscape" xmlns:rdf="http://www.w3.org/1999/02/22-rdf-syntax-ns#" xmlns:sodipodi="http://sodipodi.sourceforge.net/DTD/sodipodi-0.dtd" xmlns:svg="http://www.w3.org/2000/svg"
	 xmlns="http://www.w3.org/2000/svg" xmlns:xlink="http://www.w3.org/1999/xlink" x="0px" y="0px" viewBox="0 0 558 153"
	 style="enable-background:new 0 0 558 153;" xml:space="preserve">
<style type="text/css">
	.st0{fill:#2B526C;}
	.st1{fill:#FFFFFF;}
	.st2{font-family:'RedHatDisplay-Bold';}
	.st3{font-size:122.236px;}
	.st4{font-size:52.188px;}
	.st5{font-size:50.9705px;}
	.st6{enable-background:new    ;}
</style>
<sodipodi:namedview  bordercolor="#666666" borderopacity="1.0" id="base" inkscape:current-layer="layer1" inkscape:cx="195.99992" inkscape:cy="437.85784" inkscape:document-rotation="0" inkscape:document-units="mm" inkscape:pageopacity="0.0" inkscape:pageshadow="2" inkscape:snap-text-baseline="true" inkscape:window-height="1256" inkscape:window-maximized="0" inkscape:window-width="1696" inkscape:window-x="369" inkscape:window-y="94" inkscape:zoom="1.4369459" pagecolor="#ffffff" showgrid="true">
	<inkscape:grid  id="grid1087" spacingx="1" spacingy="1" type="xygrid" units="mm"></inkscape:grid>
</sodipodi:namedview>
<g id="layer1" inkscape:groupmode="layer" inkscape:label="Layer 1">
	<g id="g848" transform="translate(-53.55885,-3.3944495)">
		
			<path id="path1872" inkscape:export-xdpi="426.25" inkscape:export-ydpi="426.25" inkscape:flatsided="true" inkscape:randomized="0" inkscape:rounded="0" inkscape:transform-center-y="4.2950257e-06" sodipodi:arg1="1.0471976" sodipodi:arg2="1.5707963" sodipodi:cx="-68.605553" sodipodi:cy="153.755" sodipodi:r1="7.2111025" sodipodi:r2="6.244998" sodipodi:sides="6" sodipodi:type="star" class="st0" d="
			M110.5,136.5L76.7,78.2L110.5,20l67.5,0l33.8,58.2L178,136.5L110.5,136.5z"/>
		<text transform="matrix(0.9692 0 0 1 98.2394 122.7214)" class="st1 st2 st3">C</text>
	</g>
	<text transform="matrix(1.4594 0 0 1 166.1258 65.99)" class="st2 st4">C</text>
	<text transform="matrix(1.4594 0 0 1 220.8094 65.99)" class="st2 st5">e</text>
	<g>
		<g class="st6">
			<path d="M269.3,66V50.7c0-2.2,0.7-4.2,2.2-6c1.5-1.8,3.7-3.3,6.5-4.3c2.8-1.1,6.2-1.6,10.2-1.6c4,0,7.4,0.5,10.2,1.6
				c2.8,1.1,5,2.5,6.5,4.3c1.5,1.8,2.2,3.8,2.2,6V66h-10.4V50.7c0-1.1-0.4-2.1-1.1-2.9s-1.8-1.6-3.1-2.1c-1.3-0.5-2.7-0.8-4.3-0.8
				c-1.6,0-3,0.3-4.3,0.8c-1.3,0.5-2.3,1.2-3.1,2.1s-1.1,1.9-1.1,2.9V66H269.3z"/>
			<path d="M313,45.5v-6.1h28v6.1H313z M330.7,66c-3.5,0-6.2-0.7-8.1-2c-2-1.4-2.9-3.2-2.9-5.5V32.7h10.4v25.5
				c0,0.5,0.2,0.8,0.7,1.2c0.5,0.3,1.1,0.5,1.7,0.5h8.5V66H330.7z"/>
			<path d="M348.6,66v-19c0-2.4,1-4.2,2.9-5.6c2-1.3,4.7-2,8.1-2h10.7v6.1h-8.9c-0.7,0-1.2,0.2-1.7,0.5c-0.5,0.3-0.7,0.7-0.7,1.2V66
				H348.6z"/>
			<path d="M394.7,66.6c-4,0-7.6-0.6-10.7-1.9c-3.1-1.2-5.6-2.9-7.5-5c-1.8-2.1-2.7-4.5-2.7-7.1s0.9-5,2.7-7.1
				c1.8-2.1,4.3-3.8,7.5-5c3.1-1.2,6.7-1.9,10.7-1.9c4,0,7.6,0.6,10.7,1.9c3.1,1.2,5.6,2.9,7.5,5c1.8,2.1,2.7,4.5,2.7,7.1
				s-0.9,5-2.7,7.1c-1.8,2.1-4.3,3.8-7.5,5C402.3,66,398.7,66.6,394.7,66.6z M394.7,60.5c2.1,0,4-0.3,5.5-1c1.5-0.7,2.7-1.6,3.6-2.8
				c0.8-1.2,1.3-2.5,1.3-4c0-1.5-0.4-2.8-1.3-4c-0.8-1.2-2-2.1-3.6-2.8c-1.5-0.7-3.4-1-5.5-1s-4,0.3-5.5,1c-1.6,0.7-2.7,1.6-3.6,2.8
				c-0.8,1.2-1.3,2.5-1.3,4c0,1.5,0.4,2.8,1.3,4c0.8,1.2,2,2.1,3.6,2.8C390.7,60.2,392.6,60.5,394.7,60.5z"/>
			<path d="M428.5,36.2c-1.8,0-3.3-0.4-4.6-1.3c-1.3-0.9-1.9-1.9-1.9-3.2c0-1.2,0.6-2.3,1.9-3.2s2.8-1.3,4.6-1.3
				c1.8,0,3.3,0.4,4.6,1.3s1.9,1.9,1.9,3.2c0,1.2-0.6,2.3-1.9,3.2C431.8,35.7,430.3,36.2,428.5,36.2z M423.3,66V39.4h10.5V66H423.3z
				"/>
			<path d="M453.1,65.5c-2.5-0.7-4.7-1.7-6.4-3c-1.7-1.3-3-2.8-4-4.6c-0.9-1.8-1.4-3.7-1.4-5.8c0-2.6,0.8-5,2.3-7
				c1.5-2,3.7-3.6,6.5-4.7c2.8-1.1,6.1-1.7,9.9-1.7c1.6,0,3.2,0.2,4.7,0.5c1.5,0.3,2.8,0.8,4,1.4c1.2,0.6,2.2,1.3,3,2.1h0.1V27.9
				h10.4v24.3c0,2.9-0.8,5.5-2.5,7.6c-1.7,2.2-4,3.9-7.1,5c-3.1,1.2-6.7,1.8-10.9,1.8C458.5,66.6,455.6,66.3,453.1,65.5z
				 M467.1,59.5c1.5-0.7,2.6-1.6,3.4-2.8c0.8-1.2,1.2-2.5,1.2-4c0-1.5-0.4-2.8-1.2-4c-0.8-1.2-1.9-2.1-3.4-2.8c-1.5-0.7-3.3-1-5.3-1
				c-2.1,0-3.9,0.3-5.3,1c-1.5,0.7-2.6,1.6-3.4,2.8c-0.8,1.2-1.2,2.5-1.2,4c0,1.5,0.4,2.8,1.2,4c0.8,1.2,1.9,2.1,3.4,2.8
				c1.5,0.7,3.2,1,5.3,1C463.8,60.5,465.6,60.2,467.1,59.5z"/>
		</g>
	</g>
	<g>
		<g>
			<path d="M173.6,115.9v-7.4h22.8c1,0,1.9-0.2,2.7-0.5c0.8-0.4,1.5-0.8,1.9-1.4c0.5-0.6,0.7-1.2,0.7-1.8c0-0.7-0.2-1.3-0.7-1.9
				c-0.5-0.6-1.1-1-1.9-1.4c-0.8-0.4-1.7-0.5-2.7-0.5h-8.2c-3.1,0-5.9-0.4-8.5-1.3c-2.5-0.9-4.6-2.1-6.1-3.7
				c-1.5-1.6-2.2-3.6-2.2-5.9c0-2.2,0.7-4.2,2.1-5.9c1.4-1.7,3.4-2.9,5.8-3.9c2.4-0.9,5.1-1.4,8.1-1.4h23.5v7.4h-22.1
				c-0.9,0-1.8,0.2-2.5,0.5c-0.8,0.3-1.3,0.7-1.8,1.3c-0.4,0.5-0.6,1.1-0.6,1.7c0,0.6,0.2,1.2,0.6,1.7c0.4,0.5,1,0.9,1.8,1.2
				c0.8,0.3,1.6,0.5,2.5,0.5h8.6c3.4,0,6.4,0.4,8.9,1.3c2.5,0.9,4.5,2.1,5.9,3.7c1.4,1.6,2.1,3.5,2.1,5.6c0,2.5-0.7,4.7-2.2,6.5
				c-1.4,1.8-3.4,3.1-5.8,4.1c-2.4,0.9-5.1,1.4-8.1,1.4H173.6z"/>
			<path d="M217.6,95.6v-6.7h29v6.7H217.6z M235.5,115.9c-3.6,0-6.4-0.7-8.5-2.1c-2-1.4-3-3.3-3-5.8V82.3h11.9v25.3
				c0,0.4,0.2,0.8,0.6,1.1c0.4,0.3,1,0.4,1.6,0.4h8.5v6.9H235.5z"/>
			<path d="M253.5,115.9V96.8c0-2.5,1-4.4,3-5.8c2-1.4,4.8-2.1,8.5-2.1h11.3v6.6h-8.5c-0.7,0-1.3,0.2-1.8,0.5
				c-0.5,0.3-0.8,0.8-0.8,1.3v18.6H253.5z"/>
			<path d="M301.1,116.6c-4,0-7.5-0.5-10.4-1.6c-2.9-1.1-5.2-2.5-6.7-4.4c-1.6-1.8-2.4-3.9-2.4-6.1V88.9h11.8v15.3
				c0,0.9,0.3,1.8,1,2.6c0.7,0.8,1.6,1.4,2.7,1.9s2.4,0.7,3.9,0.7c1.4,0,2.7-0.2,3.8-0.7s2-1.1,2.7-1.9c0.7-0.8,1-1.7,1-2.6V88.9
				h11.8v15.6c0,2.2-0.8,4.3-2.3,6.1s-3.7,3.3-6.6,4.4C308.6,116,305.2,116.6,301.1,116.6z"/>
			<path d="M348.4,115.9c-4,0-7.6-0.6-10.8-1.8c-3.2-1.2-5.7-2.8-7.5-4.8c-1.8-2-2.7-4.3-2.7-6.9c0-2.6,0.9-4.9,2.7-6.9
				c1.8-2,4.3-3.6,7.5-4.8c3.2-1.2,6.8-1.8,10.8-1.8h5.9v6.9h-5.4c-2,0-3.7,0.3-5.1,0.9c-1.4,0.6-2.5,1.4-3.3,2.4
				c-0.8,1-1.2,2.1-1.2,3.4c0,1.3,0.4,2.4,1.2,3.4c0.8,1,1.9,1.8,3.3,2.4c1.4,0.6,3.1,0.9,5.1,0.9h5.4v6.9H348.4z"/>
			<path d="M357.2,95.6v-6.7h29v6.7H357.2z M375.1,115.9c-3.6,0-6.4-0.7-8.5-2.1c-2-1.4-3-3.3-3-5.8V82.3h11.9v25.3
				c0,0.4,0.2,0.8,0.6,1.1c0.4,0.3,1,0.4,1.6,0.4h8.5v6.9H375.1z"/>
			<path d="M413,116.6c-4,0-7.5-0.5-10.4-1.6c-2.9-1.1-5.2-2.5-6.7-4.4c-1.6-1.8-2.4-3.9-2.4-6.1V88.9h11.8v15.3
				c0,0.9,0.3,1.8,1,2.6c0.7,0.8,1.6,1.4,2.7,1.9c1.1,0.5,2.4,0.7,3.9,0.7c1.4,0,2.7-0.2,3.8-0.7c1.1-0.5,2-1.1,2.7-1.9
				c0.7-0.8,1-1.7,1-2.6V88.9h11.8v15.6c0,2.2-0.8,4.3-2.3,6.1s-3.7,3.3-6.6,4.4C420.5,116,417.1,116.6,413,116.6z"/>
			<path d="M440.8,115.9V96.8c0-2.5,1-4.4,3-5.8c2-1.4,4.8-2.1,8.5-2.1h11.3v6.6h-8.5c-0.7,0-1.3,0.2-1.8,0.5
				c-0.5,0.3-0.8,0.8-0.8,1.3v18.6H440.8z"/>
			<path d="M484.6,116.6c-3.5,0-6.5-0.6-9.1-1.8c-2.6-1.2-4.7-2.9-6.2-5c-1.5-2.1-2.2-4.5-2.2-7.1c0-2.7,0.9-5.2,2.6-7.4
				c1.7-2.2,4.2-3.9,7.3-5.1c3.2-1.3,6.9-1.9,11.2-1.9c4.4,0,8.1,0.6,11.2,1.9c3.1,1.2,5.4,3,7.1,5.1c1.6,2.2,2.5,4.6,2.5,7.2v13.4
				h-11.6v-4.3h-0.3c-0.7,0.9-1.6,1.8-2.7,2.6c-1.1,0.8-2.5,1.3-4.1,1.8S486.8,116.6,484.6,116.6z M488.1,109.5
				c1.8,0,3.3-0.3,4.7-0.9c1.3-0.6,2.4-1.5,3.1-2.6c0.7-1.1,1.1-2.3,1.1-3.6c0-1.3-0.4-2.5-1.1-3.5c-0.7-1.1-1.7-1.9-3.1-2.5
				c-1.3-0.6-2.9-0.9-4.7-0.9c-1.8,0-3.4,0.3-4.8,0.9c-1.4,0.6-2.4,1.5-3.1,2.5c-0.7,1.1-1.1,2.2-1.1,3.5c0,1.3,0.4,2.5,1.1,3.6
				c0.7,1.1,1.8,1.9,3.1,2.6C484.7,109.2,486.3,109.5,488.1,109.5z"/>
			<path d="M517.7,115.9V77.4h11.8v38.5H517.7z"/>
		</g>
	</g>
</g>
</svg>
