<?xml version="1.0" encoding="utf-8"?>
<!-- Generator: Adobe Illustrator 24.0.2, SVG Export Plug-In . SVG Version: 6.00 Build 0)  -->
<svg version="1.1"
	 id="svg13567" inkscape:version="1.0 (4035a4fb49, 2020-05-01)" sodipodi:docname="Sohag.svg" xmlns:cc="http://creativecommons.org/ns#" xmlns:dc="http://purl.org/dc/elements/1.1/" xmlns:inkscape="http://www.inkscape.org/namespaces/inkscape" xmlns:rdf="http://www.w3.org/1999/02/22-rdf-syntax-ns#" xmlns:sodipodi="http://sodipodi.sourceforge.net/DTD/sodipodi-0.dtd" xmlns:svg="http://www.w3.org/2000/svg"
	 xmlns="http://www.w3.org/2000/svg" xmlns:xlink="http://www.w3.org/1999/xlink" x="0px" y="0px" viewBox="0 0 218.6 61.3"
	 style="enable-background:new 0 0 218.6 61.3;" xml:space="preserve">
<style type="text/css">
	.st0{fill:#FFFFFF;}
	.st1{fill:#2B526C;}
	.st2{font-family:'RedHatDisplay-Bold';}
	.st3{font-size:53.5722px;}
	.st4{font-size:29.6976px;}
	.st5{font-size:29.0048px;}
	.st6{enable-background:new    ;}
</style>
<sodipodi:namedview  bordercolor="#666666" borderopacity="1.0" id="base" inkscape:current-layer="layer1" inkscape:cx="195.99992" inkscape:cy="437.85784" inkscape:document-rotation="0" inkscape:document-units="mm" inkscape:pageopacity="0.0" inkscape:pageshadow="2" inkscape:snap-text-baseline="true" inkscape:window-height="1256" inkscape:window-maximized="0" inkscape:window-width="1696" inkscape:window-x="369" inkscape:window-y="94" inkscape:zoom="1.4369459" pagecolor="#ffffff" showgrid="true">
	<inkscape:grid  id="grid1087" spacingx="1" spacingy="1" type="xygrid" units="mm"></inkscape:grid>
</sodipodi:namedview>
<g id="layer1" inkscape:groupmode="layer" inkscape:label="Layer 1">
	<g id="g848" transform="translate(-53.55885,-3.3944495)">
		
			<path id="path1872" inkscape:export-xdpi="426.25" inkscape:export-ydpi="426.25" inkscape:flatsided="true" inkscape:randomized="0" inkscape:rounded="0" inkscape:transform-center-y="4.2950257e-06" sodipodi:arg1="1.0471976" sodipodi:arg2="1.5707963" sodipodi:cx="-68.605553" sodipodi:cy="153.755" sodipodi:r1="7.2111025" sodipodi:r2="6.244998" sodipodi:sides="6" sodipodi:type="star" class="st0" d="
			M72.9,60.5L57.4,35L72.9,9.5l31,0L119.3,35l-15.5,25.5L72.9,60.5z"/>
		<text transform="matrix(1.0145 0 0 1 67.2959 54.5015)" class="st1 st2 st3">C</text>
	</g>
	<text transform="matrix(1.0102 0 0 1 72.0711 27.3009)" class="st0 st2 st4">C</text>
	<text transform="matrix(1.0102 0 0 1 93.6111 27.3009)" class="st0 st2 st5">e</text>
	<g>
		<g class="st6">
			<path class="st0" d="M112.7,27.3v-8.7c0-1.2,0.3-2.4,0.9-3.4c0.6-1,1.4-1.9,2.6-2.5c1.1-0.6,2.5-0.9,4-0.9c1.6,0,2.9,0.3,4,0.9
				c1.1,0.6,2,1.4,2.5,2.5c0.6,1,0.9,2.2,0.9,3.4v8.7h-4.1v-8.7c0-0.6-0.1-1.2-0.4-1.7c-0.3-0.5-0.7-0.9-1.2-1.2
				c-0.5-0.3-1.1-0.4-1.7-0.4c-0.6,0-1.2,0.1-1.7,0.4c-0.5,0.3-0.9,0.7-1.2,1.2c-0.3,0.5-0.4,1.1-0.4,1.7v8.7H112.7z"/>
			<path class="st0" d="M129.9,15.6v-3.5h11v3.5H129.9z M136.9,27.3c-1.4,0-2.4-0.4-3.2-1.2c-0.8-0.8-1.2-1.8-1.2-3.1V8.4h4.1v14.5
				c0,0.3,0.1,0.5,0.3,0.7c0.2,0.2,0.4,0.3,0.7,0.3h3.3v3.5H136.9z"/>
			<path class="st0" d="M143.9,27.3V16.5c0-1.3,0.4-2.4,1.2-3.2c0.8-0.8,1.8-1.1,3.2-1.1h4.2v3.5H149c-0.3,0-0.5,0.1-0.7,0.3
				c-0.2,0.2-0.3,0.4-0.3,0.7v10.7H143.9z"/>
			<path class="st0" d="M162.1,27.7c-1.6,0-3-0.4-4.2-1.1s-2.2-1.7-2.9-2.9c-0.7-1.2-1.1-2.5-1.1-4s0.4-2.8,1.1-4
				c0.7-1.2,1.7-2.1,2.9-2.9s2.6-1.1,4.2-1.1s3,0.4,4.2,1.1s2.2,1.7,2.9,2.9c0.7,1.2,1.1,2.5,1.1,4s-0.4,2.8-1.1,4
				c-0.7,1.2-1.7,2.1-2.9,2.9S163.7,27.7,162.1,27.7z M162.1,24.2c0.8,0,1.6-0.2,2.2-0.6c0.6-0.4,1.1-0.9,1.4-1.6
				c0.3-0.7,0.5-1.4,0.5-2.3s-0.2-1.6-0.5-2.3c-0.3-0.7-0.8-1.2-1.4-1.6c-0.6-0.4-1.3-0.6-2.2-0.6c-0.8,0-1.6,0.2-2.2,0.6
				c-0.6,0.4-1.1,0.9-1.4,1.6c-0.3,0.7-0.5,1.4-0.5,2.3s0.2,1.6,0.5,2.3c0.3,0.7,0.8,1.2,1.4,1.6C160.5,24,161.3,24.2,162.1,24.2z"
				/>
			<path class="st0" d="M175.4,10.3c-0.7,0-1.3-0.3-1.8-0.8c-0.5-0.5-0.8-1.1-0.8-1.8c0-0.7,0.3-1.3,0.8-1.8
				c0.5-0.5,1.1-0.8,1.8-0.8c0.7,0,1.3,0.3,1.8,0.8c0.5,0.5,0.8,1.1,0.8,1.8c0,0.7-0.3,1.3-0.8,1.8
				C176.7,10.1,176.1,10.3,175.4,10.3z M173.4,27.3V12.2h4.1v15.1H173.4z"/>
			<path class="st0" d="M185.1,27c-1-0.4-1.8-1-2.5-1.7c-0.7-0.7-1.2-1.6-1.6-2.6c-0.4-1-0.5-2.1-0.5-3.3c0-1.5,0.3-2.8,0.9-4
				c0.6-1.1,1.5-2,2.6-2.7s2.4-1,3.9-1c0.6,0,1.3,0.1,1.8,0.3c0.6,0.2,1.1,0.4,1.6,0.8c0.5,0.3,0.9,0.7,1.2,1.2h0V5.6h4.1v13.8
				c0,1.7-0.3,3.1-1,4.4c-0.7,1.2-1.6,2.2-2.8,2.9c-1.2,0.7-2.6,1-4.3,1C187.2,27.7,186.1,27.5,185.1,27z M190.6,23.6
				c0.6-0.4,1-0.9,1.4-1.6c0.3-0.7,0.5-1.4,0.5-2.3s-0.2-1.6-0.5-2.3c-0.3-0.7-0.8-1.2-1.4-1.6c-0.6-0.4-1.3-0.6-2.1-0.6
				c-0.8,0-1.5,0.2-2.1,0.6c-0.6,0.4-1,0.9-1.3,1.6c-0.3,0.7-0.5,1.4-0.5,2.3s0.2,1.6,0.5,2.3c0.3,0.7,0.8,1.2,1.3,1.6
				c0.6,0.4,1.3,0.6,2.1,0.6C189.3,24.2,190,24,190.6,23.6z"/>
		</g>
	</g>
	<g>
		<g>
			<path class="st0" d="M75,55.7v-4.2h9c0.4,0,0.8-0.1,1.1-0.3c0.3-0.2,0.6-0.5,0.8-0.8c0.2-0.3,0.3-0.7,0.3-1.1
				c0-0.4-0.1-0.8-0.3-1.1c-0.2-0.3-0.4-0.6-0.8-0.8c-0.3-0.2-0.7-0.3-1.1-0.3h-3.2c-1.2,0-2.3-0.2-3.3-0.7c-1-0.5-1.8-1.2-2.4-2.1
				s-0.9-2-0.9-3.3c0-1.3,0.3-2.4,0.8-3.3c0.6-0.9,1.3-1.7,2.3-2.2c1-0.5,2-0.8,3.2-0.8h9.3v4.2H81c-0.4,0-0.7,0.1-1,0.3
				c-0.3,0.2-0.5,0.4-0.7,0.7c-0.2,0.3-0.2,0.6-0.2,1c0,0.4,0.1,0.7,0.2,1c0.2,0.3,0.4,0.5,0.7,0.7c0.3,0.2,0.6,0.3,1,0.3h3.4
				c1.3,0,2.5,0.3,3.5,0.8c1,0.5,1.8,1.2,2.3,2.1c0.5,0.9,0.8,2,0.8,3.2c0,1.4-0.3,2.7-0.9,3.7c-0.6,1-1.3,1.8-2.3,2.3
				c-1,0.5-2,0.8-3.2,0.8H75z"/>
			<path class="st0" d="M92.3,44.1v-3.8h11.4v3.8H92.3z M99.4,55.7c-1.4,0-2.5-0.4-3.3-1.2s-1.2-1.9-1.2-3.3V36.6h4.7v14.4
				c0,0.2,0.1,0.4,0.3,0.6c0.2,0.2,0.4,0.3,0.6,0.3h3.4v3.9H99.4z"/>
			<path class="st0" d="M106.5,55.7V44.9c0-1.4,0.4-2.5,1.2-3.3c0.8-0.8,1.9-1.2,3.3-1.2h4.5v3.8h-3.3c-0.3,0-0.5,0.1-0.7,0.3
				c-0.2,0.2-0.3,0.4-0.3,0.7v10.6H106.5z"/>
			<path class="st0" d="M125.2,56.1c-1.6,0-2.9-0.3-4.1-0.9c-1.2-0.6-2-1.4-2.7-2.5c-0.6-1.1-0.9-2.2-0.9-3.5v-8.9h4.6v8.7
				c0,0.5,0.1,1,0.4,1.5c0.3,0.4,0.6,0.8,1.1,1.1c0.4,0.3,1,0.4,1.5,0.4c0.6,0,1.1-0.1,1.5-0.4c0.5-0.3,0.8-0.6,1.1-1.1
				c0.3-0.5,0.4-0.9,0.4-1.5v-8.7h4.6v8.9c0,1.3-0.3,2.4-0.9,3.5c-0.6,1-1.5,1.9-2.6,2.5C128.2,55.8,126.8,56.1,125.2,56.1z"/>
			<path class="st0" d="M143.9,55.7c-1.6,0-3-0.3-4.2-1c-1.3-0.7-2.2-1.6-3-2.7c-0.7-1.1-1.1-2.5-1.1-3.9c0-1.5,0.4-2.8,1.1-3.9
				c0.7-1.1,1.7-2.1,3-2.7c1.2-0.7,2.7-1,4.2-1h2.3v3.9H144c-0.8,0-1.5,0.2-2,0.5c-0.6,0.3-1,0.8-1.3,1.4c-0.3,0.6-0.5,1.2-0.5,1.9
				c0,0.7,0.2,1.4,0.5,1.9c0.3,0.6,0.7,1,1.3,1.4c0.6,0.3,1.2,0.5,2,0.5h2.1v3.9H143.9z"/>
			<path class="st0" d="M147.3,44.1v-3.8h11.4v3.8H147.3z M154.4,55.7c-1.4,0-2.5-0.4-3.3-1.2s-1.2-1.9-1.2-3.3V36.6h4.7v14.4
				c0,0.2,0.1,0.4,0.3,0.6c0.2,0.2,0.4,0.3,0.6,0.3h3.4v3.9H154.4z"/>
			<path class="st0" d="M169.3,56.1c-1.6,0-2.9-0.3-4.1-0.9c-1.2-0.6-2-1.4-2.7-2.5c-0.6-1.1-0.9-2.2-0.9-3.5v-8.9h4.6v8.7
				c0,0.5,0.1,1,0.4,1.5c0.3,0.4,0.6,0.8,1.1,1.1c0.4,0.3,1,0.4,1.5,0.4c0.6,0,1.1-0.1,1.5-0.4c0.5-0.3,0.8-0.6,1.1-1.1
				c0.3-0.5,0.4-0.9,0.4-1.5v-8.7h4.6v8.9c0,1.3-0.3,2.4-0.9,3.5c-0.6,1-1.5,1.9-2.6,2.5C172.3,55.8,170.9,56.1,169.3,56.1z"/>
			<path class="st0" d="M180.3,55.7V44.9c0-1.4,0.4-2.5,1.2-3.3c0.8-0.8,1.9-1.2,3.3-1.2h4.5v3.8h-3.3c-0.3,0-0.5,0.1-0.7,0.3
				c-0.2,0.2-0.3,0.4-0.3,0.7v10.6H180.3z"/>
			<path class="st0" d="M197.5,56.1c-1.4,0-2.6-0.4-3.6-1s-1.9-1.6-2.4-2.8c-0.6-1.2-0.9-2.5-0.9-4c0-1.6,0.3-3,1-4.2
				c0.7-1.2,1.6-2.2,2.9-2.9c1.2-0.7,2.7-1.1,4.4-1.1c1.7,0,3.2,0.4,4.4,1.1c1.2,0.7,2.1,1.7,2.8,2.9s1,2.6,1,4.1v7.6h-4.6v-2.5
				h-0.1c-0.3,0.5-0.6,1-1.1,1.5s-1,0.8-1.6,1C199.1,56,198.4,56.1,197.5,56.1z M198.9,52.1c0.7,0,1.3-0.2,1.8-0.5
				c0.5-0.3,0.9-0.8,1.2-1.5c0.3-0.6,0.4-1.3,0.4-2.1c0-0.7-0.1-1.4-0.4-2c-0.3-0.6-0.7-1.1-1.2-1.4c-0.5-0.3-1.1-0.5-1.8-0.5
				c-0.7,0-1.3,0.2-1.9,0.5c-0.5,0.4-1,0.8-1.2,1.4c-0.3,0.6-0.4,1.3-0.4,2c0,0.8,0.1,1.5,0.4,2.1c0.3,0.6,0.7,1.1,1.2,1.5
				C197.5,51.9,198.2,52.1,198.9,52.1z"/>
			<path class="st0" d="M210.6,55.7V33.8h4.6v21.9H210.6z"/>
		</g>
	</g>
</g>
</svg>
